<svg width="37" height="45" viewBox="0 0 37 45" fill="none" xmlns="http://www.w3.org/2000/svg">
<path d="M3.94175 1.32664C3.95251 1.19274 3.9908 1.05908 4.05989 0.933797C4.32038 0.45894 4.91668 0.285532 5.39145 0.546996C5.82863 0.786747 6.26388 1.03815 6.69917 1.30136C7.1626 1.58158 7.31306 2.18194 7.02967 2.64807C6.74944 3.1115 6.14631 3.25977 5.68295 2.97856C5.27205 2.7301 4.86022 2.49337 4.44767 2.26544C4.09915 2.07315 3.91174 1.70001 3.94175 1.32664Z" fill="#111312"/>
<path d="M7.62082 3.65079C7.63465 3.47877 7.69367 3.30743 7.80316 3.15686C8.11986 2.71702 8.73282 2.61775 9.17259 2.93542C9.96668 3.50783 10.7514 4.12374 11.5044 4.76565C11.916 5.11646 11.9666 5.73438 11.6147 6.14778C11.2638 6.56028 10.645 6.6099 10.2326 6.25803C9.51907 5.6498 8.77593 5.06771 8.02566 4.52539C7.73548 4.31713 7.59427 3.98115 7.62082 3.65079ZM12.0118 7.3877C12.0298 7.16387 12.124 6.94618 12.2942 6.77492C12.6762 6.39147 13.2971 6.38925 13.6805 6.77223C14.3699 7.45919 15.0484 8.18559 15.6975 8.93326C16.0532 9.34254 16.0083 9.96261 15.6001 10.3164C15.1908 10.6721 14.5718 10.6272 14.217 10.219C13.5984 9.50725 12.9536 8.81502 12.2969 8.16119C12.0847 7.94936 11.9895 7.66528 12.0118 7.3877ZM15.7945 11.7407C15.8162 11.4709 15.9482 11.212 16.1807 11.0359C16.6132 10.7097 17.2271 10.7954 17.5543 11.228C18.1358 11.9977 18.7081 12.8081 19.2546 13.6341C19.5536 14.087 19.43 14.6949 18.9781 14.993C18.5262 15.2921 17.9184 15.1675 17.6192 14.7165C17.0946 13.9238 16.5471 13.1479 15.9896 12.4106C15.8395 12.2096 15.776 11.9714 15.7945 11.7407ZM18.9829 16.5486C19.0077 16.2398 19.1778 15.9475 19.4668 15.7789C19.9353 15.5067 20.5355 15.6641 20.8077 16.1326C21.2892 16.9593 21.7636 17.8247 22.22 18.7064C22.4688 19.1858 22.2795 19.7785 21.7981 20.0271C21.3168 20.2756 20.726 20.0865 20.4775 19.6052C20.0373 18.7533 19.5793 17.9167 19.1142 17.1189C19.0085 16.9402 18.9674 16.7412 18.9829 16.5486ZM21.6313 21.6742C21.6589 21.3311 21.8654 21.0142 22.2004 20.8602C22.6927 20.6341 23.2744 20.8501 23.5005 21.3424C23.8972 22.2075 24.2847 23.1023 24.6627 24.0289C24.8693 24.5305 24.6266 25.1022 24.1252 25.3068C23.6238 25.5115 23.0519 25.2707 22.8473 24.7693C22.4799 23.8692 22.1032 22.9998 21.7182 22.1592C21.6452 22.0029 21.6183 21.8354 21.6313 21.6742ZM23.8179 27.0134C23.8476 26.643 24.0872 26.3062 24.4592 26.1698C24.9679 25.9844 25.5311 26.2471 25.7165 26.7558C26.0421 27.6496 26.3597 28.5694 26.6682 29.5159C26.8373 30.0312 26.5548 30.584 26.0396 30.7521C25.5244 30.9202 24.9716 30.6387 24.8034 30.1235C24.502 29.1982 24.1916 28.2997 23.8731 27.4271C23.8241 27.2914 23.8069 27.1503 23.8179 27.0134ZM25.6101 32.4981C25.6417 32.1042 25.9119 31.7531 26.313 31.6348C26.8328 31.4828 27.3774 31.7814 27.5294 32.3012C27.7954 33.2138 28.0547 34.1495 28.306 35.1101C28.444 35.6328 28.1293 36.1701 27.6048 36.307C27.0813 36.444 26.5448 36.1303 26.4079 35.6058C26.1619 34.6643 25.9081 33.7468 25.6466 32.8512C25.6127 32.7344 25.6007 32.6144 25.6101 32.4981Z" fill="#111312"/>
<path d="M27.0771 38.1051C27.1103 37.6916 27.406 37.3288 27.8322 37.2283C28.3595 37.1054 28.887 37.4331 29.0099 37.9604C29.1211 38.4376 29.2309 38.9196 29.3383 39.4063C29.4531 39.9359 29.121 40.4581 28.5922 40.575C28.0634 40.6918 27.5403 40.3576 27.4235 39.8288C27.3174 39.3491 27.2099 38.8752 27.1001 38.406C27.0767 38.3057 27.0691 38.2038 27.0771 38.1051Z" fill="#111312"/>
<path d="M21.881 39.0941C21.893 38.9446 21.9394 38.7959 22.0232 38.659C22.3071 38.1978 22.9109 38.0545 23.372 38.3385L28.8508 41.7113L32.4891 36.1113C32.7843 35.6569 33.3918 35.5277 33.8452 35.8228C34.2996 36.1171 34.4298 36.7257 34.1336 37.179L29.9743 43.5821C29.6846 44.0291 29.0915 44.1624 28.6378 43.8829L22.3436 40.0078C22.0193 39.8086 21.8523 39.4509 21.881 39.0941Z" fill="#111312"/>
</svg>
