<svg width="17" height="16" viewBox="0 0 17 16" fill="none" xmlns="http://www.w3.org/2000/svg">
<path d="M7.99999 7.46469L1.33332 3.20187V11.7435C1.33332 11.8183 1.35736 11.8798 1.40545 11.9279C1.45353 11.9759 1.51497 12 1.58976 12H9.04168V13.25H1.58976C1.16882 13.25 0.81251 13.1041 0.520844 12.8125C0.229177 12.5208 0.0833435 12.1645 0.0833435 11.7435V2.25642C0.0833435 1.83547 0.229177 1.47917 0.520844 1.1875C0.81251 0.895833 1.16882 0.75 1.58976 0.75H14.4102C14.8312 0.75 15.1875 0.895833 15.4791 1.1875C15.7708 1.47917 15.9166 1.83547 15.9166 2.25642V8.04167H14.6667V3.20187L7.99999 7.46469ZM7.99999 6.16665L14.5384 1.99998H1.46153L7.99999 6.16665ZM13.6731 15.6618L12.8029 14.7916L14.3157 13.25H10.5481V12H14.3237L12.7821 10.4583L13.6731 9.58812L16.7099 12.625L13.6731 15.6618ZM1.33332 3.20187V12.6971V8.04167V8.14423V1.99998V3.20187Z" fill="#FF4683"/>
</svg>
