<svg width="66" height="66" viewBox="0 0 66 66" fill="none" xmlns="http://www.w3.org/2000/svg">
<path d="M64.5 0.375H55.5C55.3522 0.374914 55.2059 0.403955 55.0694 0.460461C54.9328 0.516967 54.8088 0.599831 54.7043 0.704314C54.5998 0.808797 54.517 0.93285 54.4605 1.06938C54.404 1.20591 54.3749 1.35224 54.375 1.5V4.875H38.625V1.5C38.6251 1.35224 38.596 1.20591 38.5395 1.06938C38.483 0.93285 38.4002 0.808797 38.2957 0.704314C38.1912 0.599831 38.0672 0.516967 37.9306 0.460461C37.7941 0.403955 37.6478 0.374914 37.5 0.375H28.5C28.3522 0.374914 28.2059 0.403955 28.0694 0.460461C27.9328 0.516967 27.8088 0.599831 27.7043 0.704314C27.5998 0.808797 27.517 0.93285 27.4605 1.06938C27.404 1.20591 27.3749 1.35224 27.375 1.5V4.875H11.625V1.5C11.6251 1.35224 11.596 1.20591 11.5395 1.06938C11.483 0.93285 11.4002 0.808797 11.2957 0.704314C11.1912 0.599831 11.0672 0.516967 10.9306 0.460461C10.7941 0.403955 10.6478 0.374914 10.5 0.375H1.5C1.35224 0.374914 1.20591 0.403955 1.06938 0.460461C0.93285 0.516967 0.808797 0.599831 0.704314 0.704314C0.599831 0.808797 0.516967 0.93285 0.460461 1.06938C0.403955 1.20591 0.374914 1.35224 0.375 1.5V10.5C0.374914 10.6478 0.403955 10.7941 0.460461 10.9306C0.516967 11.0672 0.599831 11.1912 0.704314 11.2957C0.808797 11.4002 0.93285 11.483 1.06938 11.5395C1.20591 11.596 1.35224 11.6251 1.5 11.625H4.875V27.375H1.5C1.35224 27.3749 1.20591 27.404 1.06938 27.4605C0.93285 27.517 0.808797 27.5998 0.704314 27.7043C0.599831 27.8088 0.516967 27.9328 0.460461 28.0694C0.403955 28.2059 0.374914 28.3522 0.375 28.5V37.5C0.374914 37.6478 0.403955 37.7941 0.460461 37.9306C0.516967 38.0672 0.599831 38.1912 0.704314 38.2957C0.808797 38.4002 0.93285 38.483 1.06938 38.5395C1.20591 38.596 1.35224 38.6251 1.5 38.625H4.875V54.375H1.5C1.35224 54.3749 1.20591 54.404 1.06938 54.4605C0.93285 54.517 0.808797 54.5998 0.704314 54.7043C0.599831 54.8088 0.516967 54.9328 0.460461 55.0694C0.403955 55.2059 0.374914 55.3522 0.375 55.5V64.5C0.374914 64.6478 0.403955 64.7941 0.460461 64.9306C0.516967 65.0672 0.599831 65.1912 0.704314 65.2957C0.808797 65.4002 0.93285 65.483 1.06938 65.5395C1.20591 65.596 1.35224 65.6251 1.5 65.625H10.5C10.6478 65.6251 10.7941 65.596 10.9306 65.5395C11.0672 65.483 11.1912 65.4002 11.2957 65.2957C11.4002 65.1912 11.483 65.0672 11.5395 64.9306C11.596 64.7941 11.6251 64.6478 11.625 64.5V61.125H27.375V64.5C27.3749 64.6478 27.404 64.7941 27.4605 64.9306C27.517 65.0672 27.5998 65.1912 27.7043 65.2957C27.8088 65.4002 27.9328 65.483 28.0694 65.5395C28.2059 65.596 28.3522 65.6251 28.5 65.625H37.5C37.6478 65.6251 37.7941 65.596 37.9306 65.5395C38.0672 65.483 38.1912 65.4002 38.2957 65.2957C38.4002 65.1912 38.483 65.0672 38.5395 64.9306C38.596 64.7941 38.6251 64.6478 38.625 64.5V61.125H54.375V64.5C54.3749 64.6478 54.404 64.7941 54.4605 64.9306C54.517 65.0672 54.5998 65.1912 54.7043 65.2957C54.8088 65.4002 54.9328 65.483 55.0694 65.5395C55.2059 65.596 55.3522 65.6251 55.5 65.625H64.5C64.6478 65.6251 64.7941 65.596 64.9306 65.5395C65.0672 65.483 65.1912 65.4002 65.2957 65.2957C65.4002 65.1912 65.483 65.0672 65.5395 64.9306C65.596 64.7941 65.6251 64.6478 65.625 64.5V55.5C65.6251 55.3522 65.596 55.2059 65.5395 55.0694C65.483 54.9328 65.4002 54.8088 65.2957 54.7043C65.1912 54.5998 65.0672 54.517 64.9306 54.4605C64.7941 54.404 64.6478 54.3749 64.5 54.375H61.125V38.625H64.5C64.6478 38.6251 64.7941 38.596 64.9306 38.5395C65.0672 38.483 65.1912 38.4002 65.2957 38.2957C65.4002 38.1912 65.483 38.0672 65.5395 37.9306C65.596 37.7941 65.6251 37.6478 65.625 37.5V28.5C65.6251 28.3522 65.596 28.2059 65.5395 28.0694C65.483 27.9328 65.4002 27.8088 65.2957 27.7043C65.1912 27.5998 65.0672 27.517 64.9306 27.4605C64.7941 27.404 64.6478 27.3749 64.5 27.375H61.125V11.625H64.5C64.6478 11.6251 64.7941 11.596 64.9306 11.5395C65.0672 11.483 65.1912 11.4002 65.2957 11.2957C65.4002 11.1912 65.483 11.0672 65.5395 10.9306C65.596 10.7941 65.6251 10.6478 65.625 10.5V1.5C65.6251 1.35224 65.596 1.20591 65.5395 1.06938C65.483 0.93285 65.4002 0.808797 65.2957 0.704314C65.1912 0.599831 65.0672 0.516967 64.9306 0.460461C64.7941 0.403955 64.6478 0.374914 64.5 0.375ZM29.625 2.625H36.375V9.375H29.625V2.625ZM2.625 2.625H9.375V9.375H2.625V2.625ZM2.625 29.625H9.375V36.375H2.625V29.625ZM9.375 63.375H2.625V56.625H9.375V63.375ZM36.375 63.375H29.625V56.625H36.375V63.375ZM63.375 63.375H56.625V56.625H63.375V63.375ZM63.375 36.375H56.625V29.625H63.375V36.375ZM58.875 27.375H55.5C55.3522 27.3749 55.2059 27.404 55.0694 27.4605C54.9328 27.517 54.8088 27.5998 54.7043 27.7043C54.5998 27.8088 54.517 27.9328 54.4605 28.0694C54.404 28.2059 54.3749 28.3522 54.375 28.5V37.5C54.3749 37.6478 54.404 37.7941 54.4605 37.9306C54.517 38.0672 54.5998 38.1912 54.7043 38.2957C54.8088 38.4002 54.9328 38.483 55.0694 38.5395C55.2059 38.596 55.3522 38.6251 55.5 38.625H58.875V54.375H55.5C55.3522 54.3749 55.2059 54.404 55.0694 54.4605C54.9328 54.517 54.8088 54.5998 54.7043 54.7043C54.5998 54.8088 54.517 54.9328 54.4605 55.0694C54.404 55.2059 54.3749 55.3522 54.375 55.5V58.875H38.625V55.5C38.6251 55.3522 38.596 55.2059 38.5395 55.0694C38.483 54.9328 38.4002 54.8088 38.2957 54.7043C38.1912 54.5998 38.0672 54.517 37.9306 54.4605C37.7941 54.404 37.6478 54.3749 37.5 54.375H28.5C28.3522 54.3749 28.2059 54.404 28.0694 54.4605C27.9328 54.517 27.8088 54.5998 27.7043 54.7043C27.5998 54.8088 27.517 54.9328 27.4605 55.0694C27.404 55.2059 27.3749 55.3522 27.375 55.5V58.875H11.625V55.5C11.6251 55.3522 11.596 55.2059 11.5395 55.0694C11.483 54.9328 11.4002 54.8088 11.2957 54.7043C11.1912 54.5998 11.0672 54.517 10.9306 54.4605C10.7941 54.404 10.6478 54.3749 10.5 54.375H7.125V38.625H10.5C10.6478 38.6251 10.7941 38.596 10.9306 38.5395C11.0672 38.483 11.1912 38.4002 11.2957 38.2957C11.4002 38.1912 11.483 38.0672 11.5395 37.9306C11.596 37.7941 11.6251 37.6478 11.625 37.5V28.5C11.6251 28.3522 11.596 28.2059 11.5395 28.0694C11.483 27.9328 11.4002 27.8088 11.2957 27.7043C11.1912 27.5998 11.0672 27.517 10.9306 27.4605C10.7941 27.404 10.6478 27.3749 10.5 27.375H7.125V11.625H10.5C10.6478 11.6251 10.7941 11.596 10.9306 11.5395C11.0672 11.483 11.1912 11.4002 11.2957 11.2957C11.4002 11.1912 11.483 11.0672 11.5395 10.9306C11.596 10.7941 11.6251 10.6478 11.625 10.5V7.125H27.375V10.5C27.3749 10.6478 27.404 10.7941 27.4605 10.9306C27.517 11.0672 27.5998 11.1912 27.7043 11.2957C27.8088 11.4002 27.9328 11.483 28.0694 11.5395C28.2059 11.596 28.3522 11.6251 28.5 11.625H37.5C37.6478 11.6251 37.7941 11.596 37.9306 11.5395C38.0672 11.483 38.1912 11.4002 38.2957 11.2957C38.4002 11.1912 38.483 11.0672 38.5395 10.9306C38.596 10.7941 38.6251 10.6478 38.625 10.5V7.125H54.375V10.5C54.3749 10.6478 54.404 10.7941 54.4605 10.9306C54.517 11.0672 54.5998 11.1912 54.7043 11.2957C54.8088 11.4002 54.9328 11.483 55.0694 11.5395C55.2059 11.596 55.3522 11.6251 55.5 11.625H58.875V27.375ZM63.375 9.375H56.625V2.625H63.375V9.375Z" fill="#FF4683"/>
<path d="M33 16.1249C30.1729 16.1171 27.3892 16.8206 24.9053 18.1706C24.7753 18.2407 24.6604 18.3358 24.5671 18.4503C24.4738 18.5648 24.404 18.6966 24.3617 18.8381C24.2762 19.1238 24.3077 19.4319 24.4493 19.6944C24.5909 19.9569 24.831 20.1524 25.1168 20.238C25.2583 20.2803 25.4068 20.2943 25.5537 20.2793C25.7006 20.2643 25.8431 20.2204 25.9731 20.1503C26.7526 19.7394 27.567 19.3984 28.4068 19.1316C27.1336 21.1816 26.2587 23.4536 25.8281 25.8281C23.4536 26.2586 21.1817 27.1335 19.1317 28.4067C19.3985 27.5669 19.7394 26.7525 20.1504 25.9731C20.2205 25.8431 20.2643 25.7006 20.2794 25.5536C20.2944 25.4067 20.2803 25.2583 20.238 25.1168C20.1957 24.9753 20.1259 24.8435 20.0326 24.729C19.9394 24.6144 19.8244 24.5194 19.6945 24.4493C19.5645 24.3792 19.4219 24.3353 19.275 24.3203C19.1281 24.3053 18.9796 24.3193 18.8381 24.3617C18.6966 24.404 18.5649 24.4738 18.4503 24.567C18.3358 24.6603 18.2408 24.7752 18.1707 24.9052C16.3938 28.1515 15.7324 31.8916 16.2882 35.5505C16.844 39.2093 18.5861 42.5843 21.2468 45.1566C23.9075 47.7289 27.3394 49.356 31.015 49.7879C34.6905 50.2198 38.4061 49.4324 41.5906 47.5469C44.775 45.6615 47.2521 42.7822 48.6408 39.3519C50.0295 35.9215 50.2531 32.13 49.2772 28.5602C48.3012 24.9904 46.1797 21.84 43.2389 19.5933C40.2981 17.3466 36.7008 16.128 33 16.1249ZM46.8771 28.4122C44.825 27.1357 42.5499 26.2589 40.1719 25.8281C39.741 23.45 38.8642 21.175 37.5878 19.1228C39.7512 19.8434 41.7171 21.058 43.3295 22.6704C44.9419 24.2829 46.1565 26.2487 46.8771 28.4122ZM33 47.6249C31.2209 47.6249 29.3109 44.9301 28.2373 40.5747C31.3998 40.975 34.6002 40.975 37.7627 40.5747C36.6891 44.9301 34.7791 47.6249 33 47.6249ZM33 38.6249C31.2497 38.6275 29.5018 38.4948 27.7719 38.2281C27.2428 34.7627 27.2427 31.2372 27.7717 27.7718C31.2372 27.2427 34.7628 27.2426 38.2283 27.7717C38.7573 31.2371 38.7573 34.7628 38.2281 38.2282C36.4982 38.4949 34.7503 38.6275 33 38.6249ZM40.5748 28.2372C44.9302 29.3109 47.625 31.2208 47.625 32.9999C47.625 34.779 44.9302 36.689 40.5748 37.7627C40.9751 34.6001 40.9751 31.3998 40.5748 28.2372ZM33 18.3749C34.7791 18.3749 36.6891 21.0697 37.7627 25.4251C34.6002 25.0249 31.3998 25.0249 28.2373 25.4251C29.3109 21.0697 31.2209 18.3749 33 18.3749ZM25.4252 28.2372C25.0249 31.3998 25.0249 34.6001 25.4252 37.7627C21.0698 36.689 18.375 34.779 18.375 32.9999C18.375 31.2208 21.0698 29.3109 25.4252 28.2372ZM19.123 37.5877C21.1751 38.8642 23.4501 39.7409 25.828 40.1718C26.2589 42.5498 27.1357 44.8248 28.4122 46.8768C26.2487 46.1563 24.2829 44.9417 22.6706 43.3293C21.0582 41.7169 19.8436 39.7511 19.123 37.5877ZM37.5878 46.8769C38.8642 44.8248 39.741 42.5499 40.1719 40.1719C42.5498 39.741 44.8248 38.8642 46.8769 37.5878C46.1563 39.7512 44.9417 41.717 43.3294 43.3294C41.717 44.9418 39.7512 46.1564 37.5878 46.8769Z" fill="#FF4683"/>
<path d="M22.6586 22.6585C22.8159 22.5012 22.9231 22.3008 22.9665 22.0825C23.0099 21.8643 22.9876 21.6381 22.9025 21.4325C22.8173 21.227 22.6731 21.0513 22.4881 20.9276C22.3031 20.804 22.0856 20.738 21.8631 20.738C21.6406 20.738 21.4231 20.804 21.2381 20.9276C21.0531 21.0513 20.9089 21.227 20.8237 21.4325C20.7386 21.6381 20.7163 21.8643 20.7597 22.0825C20.8031 22.3008 20.9103 22.5012 21.0676 22.6585C21.2786 22.8695 21.5648 22.988 21.8631 22.988C22.1614 22.988 22.4476 22.8695 22.6586 22.6585Z" fill="#FF4683"/>
</svg>
