<svg width="20" height="20" viewBox="0 0 20 20" fill="none" xmlns="http://www.w3.org/2000/svg">
<mask id="mask0_1_8396" style="mask-type:alpha" maskUnits="userSpaceOnUse" x="0" y="0" width="20" height="20">
<rect width="20" height="20" fill="#D9D9D9"/>
</mask>
<g mask="url(#mask0_1_8396)">
<path d="M10.0014 9.88777C10.4161 9.88777 10.7706 9.74013 11.0649 9.44486C11.3592 9.14958 11.5064 8.79461 11.5064 8.37996C11.5064 7.96531 11.3588 7.61081 11.0635 7.31648C10.7682 7.02215 10.4132 6.87498 9.99859 6.87498C9.58393 6.87498 9.22944 7.02262 8.93511 7.3179C8.64077 7.61317 8.49361 7.96814 8.49361 8.38279C8.49361 8.79745 8.64125 9.15194 8.93652 9.44627C9.2318 9.74061 9.58677 9.88777 10.0014 9.88777ZM10 16.2612C11.6303 14.8018 12.8779 13.402 13.7428 12.0617C14.6076 10.7214 15.0401 9.54751 15.0401 8.54002C15.0401 7.0208 14.5574 5.77187 13.5921 4.79323C12.6269 3.81459 11.4295 3.32527 10 3.32527C8.57052 3.32527 7.37313 3.81459 6.40786 4.79323C5.44258 5.77187 4.95994 7.0208 4.95994 8.54002C4.95994 9.54751 5.39236 10.7214 6.25721 12.0617C7.12207 13.402 8.36967 14.8018 10 16.2612ZM10 17.9246C7.90279 16.1073 6.33015 14.4161 5.28207 12.8509C4.234 11.2858 3.70996 9.84879 3.70996 8.54002C3.70996 6.61697 4.33202 5.06008 5.57615 3.86938C6.82026 2.67867 8.29488 2.08331 10 2.08331C11.7051 2.08331 13.1797 2.67867 14.4239 3.86938C15.668 5.06008 16.29 6.61697 16.29 8.54002C16.29 9.84879 15.766 11.2858 14.7179 12.8509C13.6699 14.4161 12.0972 16.1073 10 17.9246Z" fill="#FF4683"/>
</g>
</svg>
