<svg width="72" height="72" viewBox="0 0 72 72" fill="none" xmlns="http://www.w3.org/2000/svg">
<path d="M67.5 3.375H58.5C58.3522 3.37491 58.2059 3.40395 58.0694 3.46046C57.9328 3.51697 57.8088 3.59983 57.7043 3.70431C57.5998 3.8088 57.517 3.93285 57.4605 4.06938C57.404 4.20591 57.3749 4.35224 57.375 4.5V7.875H41.625V4.5C41.6251 4.35224 41.596 4.20591 41.5395 4.06938C41.483 3.93285 41.4002 3.8088 41.2957 3.70431C41.1912 3.59983 41.0672 3.51697 40.9306 3.46046C40.7941 3.40395 40.6478 3.37491 40.5 3.375H31.5C31.3522 3.37491 31.2059 3.40395 31.0694 3.46046C30.9328 3.51697 30.8088 3.59983 30.7043 3.70431C30.5998 3.8088 30.517 3.93285 30.4605 4.06938C30.404 4.20591 30.3749 4.35224 30.375 4.5V7.875H14.625V4.5C14.6251 4.35224 14.596 4.20591 14.5395 4.06938C14.483 3.93285 14.4002 3.8088 14.2957 3.70431C14.1912 3.59983 14.0672 3.51697 13.9306 3.46046C13.7941 3.40395 13.6478 3.37491 13.5 3.375H4.5C4.35224 3.37491 4.20591 3.40395 4.06938 3.46046C3.93285 3.51697 3.8088 3.59983 3.70431 3.70431C3.59983 3.8088 3.51697 3.93285 3.46046 4.06938C3.40395 4.20591 3.37491 4.35224 3.375 4.5V13.5C3.37491 13.6478 3.40395 13.7941 3.46046 13.9306C3.51697 14.0672 3.59983 14.1912 3.70431 14.2957C3.8088 14.4002 3.93285 14.483 4.06938 14.5395C4.20591 14.596 4.35224 14.6251 4.5 14.625H7.875V30.375H4.5C4.35224 30.3749 4.20591 30.404 4.06938 30.4605C3.93285 30.517 3.8088 30.5998 3.70431 30.7043C3.59983 30.8088 3.51697 30.9328 3.46046 31.0694C3.40395 31.2059 3.37491 31.3522 3.375 31.5V40.5C3.37491 40.6478 3.40395 40.7941 3.46046 40.9306C3.51697 41.0672 3.59983 41.1912 3.70431 41.2957C3.8088 41.4002 3.93285 41.483 4.06938 41.5395C4.20591 41.596 4.35224 41.6251 4.5 41.625H7.875V57.375H4.5C4.35224 57.3749 4.20591 57.404 4.06938 57.4605C3.93285 57.517 3.8088 57.5998 3.70431 57.7043C3.59983 57.8088 3.51697 57.9328 3.46046 58.0694C3.40395 58.2059 3.37491 58.3522 3.375 58.5V67.5C3.37491 67.6478 3.40395 67.7941 3.46046 67.9306C3.51697 68.0672 3.59983 68.1912 3.70431 68.2957C3.8088 68.4002 3.93285 68.483 4.06938 68.5395C4.20591 68.596 4.35224 68.6251 4.5 68.625H13.5C13.6478 68.6251 13.7941 68.596 13.9306 68.5395C14.0672 68.483 14.1912 68.4002 14.2957 68.2957C14.4002 68.1912 14.483 68.0672 14.5395 67.9306C14.596 67.7941 14.6251 67.6478 14.625 67.5V64.125H30.375V67.5C30.3749 67.6478 30.404 67.7941 30.4605 67.9306C30.517 68.0672 30.5998 68.1912 30.7043 68.2957C30.8088 68.4002 30.9328 68.483 31.0694 68.5395C31.2059 68.596 31.3522 68.6251 31.5 68.625H40.5C40.6478 68.6251 40.7941 68.596 40.9306 68.5395C41.0672 68.483 41.1912 68.4002 41.2957 68.2957C41.4002 68.1912 41.483 68.0672 41.5395 67.9306C41.596 67.7941 41.6251 67.6478 41.625 67.5V64.125H57.375V67.5C57.3749 67.6478 57.404 67.7941 57.4605 67.9306C57.517 68.0672 57.5998 68.1912 57.7043 68.2957C57.8088 68.4002 57.9328 68.483 58.0694 68.5395C58.2059 68.596 58.3522 68.6251 58.5 68.625H67.5C67.6478 68.6251 67.7941 68.596 67.9306 68.5395C68.0672 68.483 68.1912 68.4002 68.2957 68.2957C68.4002 68.1912 68.483 68.0672 68.5395 67.9306C68.596 67.7941 68.6251 67.6478 68.625 67.5V58.5C68.6251 58.3522 68.596 58.2059 68.5395 58.0694C68.483 57.9328 68.4002 57.8088 68.2957 57.7043C68.1912 57.5998 68.0672 57.517 67.9306 57.4605C67.7941 57.404 67.6478 57.3749 67.5 57.375H64.125V41.625H67.5C67.6478 41.6251 67.7941 41.596 67.9306 41.5395C68.0672 41.483 68.1912 41.4002 68.2957 41.2957C68.4002 41.1912 68.483 41.0672 68.5395 40.9306C68.596 40.7941 68.6251 40.6478 68.625 40.5V31.5C68.6251 31.3522 68.596 31.2059 68.5395 31.0694C68.483 30.9328 68.4002 30.8088 68.2957 30.7043C68.1912 30.5998 68.0672 30.517 67.9306 30.4605C67.7941 30.404 67.6478 30.3749 67.5 30.375H64.125V14.625H67.5C67.6478 14.6251 67.7941 14.596 67.9306 14.5395C68.0672 14.483 68.1912 14.4002 68.2957 14.2957C68.4002 14.1912 68.483 14.0672 68.5395 13.9306C68.596 13.7941 68.6251 13.6478 68.625 13.5V4.5C68.6251 4.35224 68.596 4.20591 68.5395 4.06938C68.483 3.93285 68.4002 3.8088 68.2957 3.70431C68.1912 3.59983 68.0672 3.51697 67.9306 3.46046C67.7941 3.40395 67.6478 3.37491 67.5 3.375ZM32.625 5.625H39.375V12.375H32.625V5.625ZM5.625 5.625H12.375V12.375H5.625V5.625ZM5.625 32.625H12.375V39.375H5.625V32.625ZM12.375 66.375H5.625V59.625H12.375V66.375ZM39.375 66.375H32.625V59.625H39.375V66.375ZM66.375 66.375H59.625V59.625H66.375V66.375ZM66.375 39.375H59.625V32.625H66.375V39.375ZM61.875 30.375H58.5C58.3522 30.3749 58.2059 30.404 58.0694 30.4605C57.9328 30.517 57.8088 30.5998 57.7043 30.7043C57.5998 30.8088 57.517 30.9328 57.4605 31.0694C57.404 31.2059 57.3749 31.3522 57.375 31.5V40.5C57.3749 40.6478 57.404 40.7941 57.4605 40.9306C57.517 41.0672 57.5998 41.1912 57.7043 41.2957C57.8088 41.4002 57.9328 41.483 58.0694 41.5395C58.2059 41.596 58.3522 41.6251 58.5 41.625H61.875V57.375H58.5C58.3522 57.3749 58.2059 57.404 58.0694 57.4605C57.9328 57.517 57.8088 57.5998 57.7043 57.7043C57.5998 57.8088 57.517 57.9328 57.4605 58.0694C57.404 58.2059 57.3749 58.3522 57.375 58.5V61.875H41.625V58.5C41.6251 58.3522 41.596 58.2059 41.5395 58.0694C41.483 57.9328 41.4002 57.8088 41.2957 57.7043C41.1912 57.5998 41.0672 57.517 40.9306 57.4605C40.7941 57.404 40.6478 57.3749 40.5 57.375H31.5C31.3522 57.3749 31.2059 57.404 31.0694 57.4605C30.9328 57.517 30.8088 57.5998 30.7043 57.7043C30.5998 57.8088 30.517 57.9328 30.4605 58.0694C30.404 58.2059 30.3749 58.3522 30.375 58.5V61.875H14.625V58.5C14.6251 58.3522 14.596 58.2059 14.5395 58.0694C14.483 57.9328 14.4002 57.8088 14.2957 57.7043C14.1912 57.5998 14.0672 57.517 13.9306 57.4605C13.7941 57.404 13.6478 57.3749 13.5 57.375H10.125V41.625H13.5C13.6478 41.6251 13.7941 41.596 13.9306 41.5395C14.0672 41.483 14.1912 41.4002 14.2957 41.2957C14.4002 41.1912 14.483 41.0672 14.5395 40.9306C14.596 40.7941 14.6251 40.6478 14.625 40.5V31.5C14.6251 31.3522 14.596 31.2059 14.5395 31.0694C14.483 30.9328 14.4002 30.8088 14.2957 30.7043C14.1912 30.5998 14.0672 30.517 13.9306 30.4605C13.7941 30.404 13.6478 30.3749 13.5 30.375H10.125V14.625H13.5C13.6478 14.6251 13.7941 14.596 13.9306 14.5395C14.0672 14.483 14.1912 14.4002 14.2957 14.2957C14.4002 14.1912 14.483 14.0672 14.5395 13.9306C14.596 13.7941 14.6251 13.6478 14.625 13.5V10.125H30.375V13.5C30.3749 13.6478 30.404 13.7941 30.4605 13.9306C30.517 14.0672 30.5998 14.1912 30.7043 14.2957C30.8088 14.4002 30.9328 14.483 31.0694 14.5395C31.2059 14.596 31.3522 14.6251 31.5 14.625H40.5C40.6478 14.6251 40.7941 14.596 40.9306 14.5395C41.0672 14.483 41.1912 14.4002 41.2957 14.2957C41.4002 14.1912 41.483 14.0672 41.5395 13.9306C41.596 13.7941 41.6251 13.6478 41.625 13.5V10.125H57.375V13.5C57.3749 13.6478 57.404 13.7941 57.4605 13.9306C57.517 14.0672 57.5998 14.1912 57.7043 14.2957C57.8088 14.4002 57.9328 14.483 58.0694 14.5395C58.2059 14.596 58.3522 14.6251 58.5 14.625H61.875V30.375ZM66.375 12.375H59.625V5.625H66.375V12.375Z" fill="#FF4683"/>
<path d="M36 19.1249C33.1729 19.1171 30.3892 19.8206 27.9053 21.1706C27.7753 21.2407 27.6604 21.3358 27.5671 21.4503C27.4738 21.5648 27.404 21.6966 27.3617 21.8381C27.2762 22.1238 27.3077 22.4319 27.4493 22.6944C27.5909 22.9569 27.831 23.1524 28.1168 23.238C28.2583 23.2803 28.4068 23.2943 28.5537 23.2793C28.7006 23.2643 28.8431 23.2204 28.9731 23.1503C29.7526 22.7394 30.567 22.3984 31.4068 22.1316C30.1336 24.1816 29.2587 26.4536 28.8281 28.8281C26.4536 29.2586 24.1817 30.1335 22.1317 31.4067C22.3985 30.5669 22.7394 29.7525 23.1504 28.9731C23.2205 28.8431 23.2643 28.7006 23.2794 28.5536C23.2944 28.4067 23.2803 28.2583 23.238 28.1168C23.1957 27.9753 23.1259 27.8435 23.0326 27.729C22.9394 27.6144 22.8244 27.5194 22.6945 27.4493C22.5645 27.3792 22.4219 27.3353 22.275 27.3203C22.1281 27.3053 21.9796 27.3193 21.8381 27.3617C21.6966 27.404 21.5649 27.4738 21.4503 27.567C21.3358 27.6603 21.2408 27.7752 21.1707 27.9052C19.3938 31.1515 18.7324 34.8916 19.2882 38.5505C19.844 42.2093 21.5861 45.5843 24.2468 48.1566C26.9075 50.7289 30.3394 52.356 34.015 52.7879C37.6905 53.2198 41.4061 52.4324 44.5906 50.5469C47.775 48.6615 50.2521 45.7822 51.6408 42.3519C53.0295 38.9215 53.2531 35.13 52.2772 31.5602C51.3012 27.9904 49.1797 24.84 46.2389 22.5933C43.2981 20.3466 39.7008 19.128 36 19.1249ZM49.8771 31.4122C47.825 30.1357 45.5499 29.2589 43.1719 28.8281C42.741 26.45 41.8642 24.175 40.5878 22.1228C42.7512 22.8434 44.7171 24.058 46.3295 25.6704C47.9419 27.2829 49.1565 29.2487 49.8771 31.4122ZM36 50.6249C34.2209 50.6249 32.3109 47.9301 31.2373 43.5747C34.3998 43.975 37.6002 43.975 40.7627 43.5747C39.6891 47.9301 37.7791 50.6249 36 50.6249ZM36 41.6249C34.2497 41.6275 32.5018 41.4948 30.7719 41.2281C30.2428 37.7627 30.2427 34.2372 30.7717 30.7718C34.2372 30.2427 37.7628 30.2426 41.2283 30.7717C41.7573 34.2371 41.7573 37.7628 41.2281 41.2282C39.4982 41.4949 37.7503 41.6275 36 41.6249ZM43.5748 31.2372C47.9302 32.3109 50.625 34.2208 50.625 35.9999C50.625 37.779 47.9302 39.689 43.5748 40.7627C43.9751 37.6001 43.9751 34.3998 43.5748 31.2372ZM36 21.3749C37.7791 21.3749 39.6891 24.0697 40.7627 28.4251C37.6002 28.0249 34.3998 28.0249 31.2373 28.4251C32.3109 24.0697 34.2209 21.3749 36 21.3749ZM28.4252 31.2372C28.0249 34.3998 28.0249 37.6001 28.4252 40.7627C24.0698 39.689 21.375 37.779 21.375 35.9999C21.375 34.2208 24.0698 32.3109 28.4252 31.2372ZM22.123 40.5877C24.1751 41.8642 26.4501 42.7409 28.828 43.1718C29.2589 45.5498 30.1357 47.8248 31.4122 49.8768C29.2487 49.1563 27.2829 47.9417 25.6706 46.3293C24.0582 44.7169 22.8436 42.7511 22.123 40.5877ZM40.5878 49.8769C41.8642 47.8248 42.741 45.5499 43.1719 43.1719C45.5498 42.741 47.8248 41.8642 49.8769 40.5878C49.1563 42.7512 47.9417 44.717 46.3294 46.3294C44.717 47.9418 42.7512 49.1564 40.5878 49.8769Z" fill="#FF4683"/>
<path d="M25.6586 25.6585C25.8159 25.5012 25.9231 25.3008 25.9665 25.0825C26.0099 24.8643 25.9876 24.6381 25.9025 24.4325C25.8173 24.227 25.6731 24.0513 25.4881 23.9276C25.3031 23.804 25.0856 23.738 24.8631 23.738C24.6406 23.738 24.4231 23.804 24.2381 23.9276C24.0531 24.0513 23.9089 24.227 23.8237 24.4325C23.7386 24.6381 23.7163 24.8643 23.7597 25.0825C23.8031 25.3008 23.9103 25.5012 24.0676 25.6585C24.2786 25.8695 24.5648 25.988 24.8631 25.988C25.1614 25.988 25.4476 25.8695 25.6586 25.6585Z" fill="#FF4683"/>
</svg>
