<svg width="72" height="72" viewBox="0 0 72 72" fill="none" xmlns="http://www.w3.org/2000/svg">
<path d="M15.75 7.875C16.425 7.875 16.875 7.425 16.875 6.75V4.5C16.875 3.825 17.325 3.375 18 3.375H40.5C41.175 3.375 41.625 3.825 41.625 4.5V19.125C41.625 19.8 42.075 20.25 42.75 20.25C43.425 20.25 43.875 19.8 43.875 19.125V4.5C43.875 2.5875 42.4125 1.125 40.5 1.125H18C16.0875 1.125 14.625 2.5875 14.625 4.5V6.75C14.625 7.425 15.075 7.875 15.75 7.875ZM15.1875 34.7625L24.075 40.05C25.3125 40.6125 26.4375 40.1625 26.8875 39.9375C27.675 39.375 28.2375 38.5875 28.2375 37.575V30.375C28.2375 29.1375 29.25 28.125 30.4875 28.125C30.7125 28.125 31.05 28.125 31.275 28.2375C31.8375 28.4625 32.5125 28.125 32.7375 27.5625C32.9625 27 32.625 26.325 32.0625 26.1C31.3875 25.9875 30.9375 25.875 30.375 25.875C27.9 25.875 25.875 27.9 25.875 30.375V37.575C25.7625 38.25 25.3125 38.1375 25.0875 38.025L16.875 33.075V11.25C16.875 10.575 16.425 10.125 15.75 10.125C15.075 10.125 14.625 10.575 14.625 11.25V33.75C14.625 34.2 14.85 34.5375 15.1875 34.7625ZM33.075 55.125H36C36.675 55.125 37.125 54.675 37.125 54C37.125 53.325 36.675 52.875 36 52.875H33.75L33.975 52.0875C34.2 51.525 33.8625 50.85 33.1875 50.625C32.625 50.4 31.95 50.7375 31.725 51.4125L30.2625 55.9125V59.625H14.625V56.025L13.275 49.3875C13.1625 48.825 12.6 48.375 11.925 48.4875C11.3625 48.6 10.9125 49.1625 11.025 49.8375L12.375 56.3625V59.625H11.1375C9.45 59.625 7.875 61.2 7.875 62.8875V67.6125C7.875 69.3 9.45 70.875 11.1375 70.875H13.5C14.175 70.875 14.625 70.425 14.625 69.75C14.625 69.075 14.175 68.625 13.5 68.625H11.1375C10.6875 68.625 10.125 68.0625 10.125 67.6125V62.8875C10.125 62.4375 10.6875 61.875 11.1375 61.875H33.75C34.425 61.875 34.7625 62.4375 34.7625 62.8875V67.6125C34.7625 68.2875 34.2 68.625 33.75 68.625H17.6625C16.9875 68.625 16.5375 69.075 16.5375 69.75C16.5375 70.425 16.9875 70.875 17.6625 70.875H33.75C35.55 70.875 37.0125 69.4125 37.0125 67.6125V62.8875C37.0125 61.0875 35.55 59.625 33.75 59.625H32.625V56.475L33.075 55.125ZM10.125 45.3375C10.2375 45.9 10.8 46.35 11.475 46.2375C12.0375 46.125 12.4875 45.5625 12.375 44.8875L10.575 36.1125C10.2375 34.65 10.4625 33.075 11.025 31.725L13.275 26.55C13.5 25.9875 13.275 25.3125 12.7125 25.0875C12.15 24.8625 11.475 25.0875 11.25 25.65L9 30.825C8.2125 32.625 7.9875 34.65 8.325 36.5625L10.125 45.3375ZM43.0875 52.3125C36.9 50.4 32.625 44.6625 32.625 38.25C32.625 30.15 39.15 23.625 47.25 23.625C47.925 23.625 48.375 23.175 48.375 22.5C48.375 21.825 47.925 21.375 47.25 21.375C37.9125 21.375 30.375 28.9125 30.375 38.25C30.375 45.675 35.325 52.3125 42.4125 54.45C42.525 54.45 43.425 54.5625 43.7625 53.6625C44.1 53.1 43.65 52.425 43.0875 52.3125ZM52.2 22.1625C51.6375 21.9375 50.9625 22.275 50.7375 22.95C50.5125 23.5125 50.85 24.1875 51.525 24.4125C57.7125 26.2125 61.875 31.8375 61.875 38.25C61.875 46.35 55.35 52.875 47.25 52.875C46.575 52.875 46.125 53.325 46.125 54C46.125 54.675 46.575 55.125 47.25 55.125C56.5875 55.125 64.125 47.5875 64.125 38.25C64.125 30.825 59.2875 24.3 52.2 22.1625Z" fill="#FF4683"/>
<path d="M56.025 29.475C55.575 29.025 54.9 29.025 54.45 29.475L47.25 36.6749L40.05 29.475C39.6 29.025 38.925 29.025 38.475 29.475C38.025 29.925 38.025 30.6 38.475 31.05L45.675 38.25L38.475 45.45C38.025 45.9 38.025 46.575 38.475 47.025C39.0375 47.5875 39.825 47.25 40.05 47.025L47.25 39.825L54.45 47.025C54.675 47.25 55.4625 47.5875 56.025 47.025C56.475 46.575 56.475 45.9 56.025 45.45L48.825 38.25L56.025 31.05C56.475 30.6 56.475 29.925 56.025 29.475Z" fill="#FF4683"/>
<path d="M57.15 43.7625C57.7125 43.9875 58.5 43.65 58.6125 43.2C59.2875 41.625 59.625 39.9375 59.625 38.25C59.625 37.4625 59.5125 36.5625 59.4 35.775C59.2875 35.2125 58.725 34.7625 58.05 34.875C57.4875 34.9875 57.0375 35.55 57.15 36.225C57.2625 36.9 57.375 37.575 57.375 38.25C57.375 39.6 57.0375 41.0625 56.5875 42.3C56.25 42.8625 56.5875 43.5375 57.15 43.7625ZM37.35 32.7375C36.7875 32.5125 36.1125 32.7375 35.8875 33.3C35.2125 34.875 34.875 36.5625 34.875 38.25C34.875 39.0375 34.9875 39.9375 35.1 40.725C35.2125 41.2875 35.6625 41.7375 36.45 41.625C37.0125 41.5125 37.4625 40.95 37.35 40.275C37.2375 39.6 37.125 38.925 37.125 38.25C37.125 36.9 37.4625 35.4375 37.9125 34.2C38.25 33.6375 37.9125 32.9625 37.35 32.7375ZM38.25 21.825C38.925 21.825 39.375 21.375 39.375 20.7V9C39.375 8.325 38.925 7.875 38.25 7.875C37.575 7.875 37.125 7.425 37.125 6.75C37.125 6.075 36.675 5.625 36 5.625H22.5C21.825 5.625 21.375 6.075 21.375 6.75C21.375 7.425 20.925 7.875 20.25 7.875C19.575 7.875 19.125 8.325 19.125 9V32.4C19.125 33.075 19.575 33.525 20.25 33.525C20.925 33.525 21.375 33.075 21.375 32.4V9.9C22.3875 9.5625 23.0625 8.775 23.4 7.875H34.9875C35.325 8.8875 36.1125 9.5625 37.0125 9.9V20.7C37.125 21.375 37.575 21.825 38.25 21.825Z" fill="#FF4683"/>
<path d="M28.125 11.25C28.125 10.575 27.675 10.125 27 10.125H25.875C24.6375 10.125 23.625 11.1375 23.625 12.375V13.5C23.625 14.175 24.075 14.625 24.75 14.625C25.425 14.625 25.875 14.175 25.875 13.5V12.375H27C27.675 12.375 28.125 11.925 28.125 11.25ZM24.75 16.875C24.075 16.875 23.625 17.325 23.625 18V20.25C23.625 20.925 24.075 21.375 24.75 21.375C25.425 21.375 25.875 20.925 25.875 20.25V18C25.875 17.325 25.425 16.875 24.75 16.875Z" fill="#FF4683"/>
<path d="M27 66.375C27.6213 66.375 28.125 65.8713 28.125 65.25C28.125 64.6287 27.6213 64.125 27 64.125C26.3787 64.125 25.875 64.6287 25.875 65.25C25.875 65.8713 26.3787 66.375 27 66.375Z" fill="#FF4683"/>
<path d="M31.5 66.375C32.1213 66.375 32.625 65.8713 32.625 65.25C32.625 64.6287 32.1213 64.125 31.5 64.125C30.8787 64.125 30.375 64.6287 30.375 65.25C30.375 65.8713 30.8787 66.375 31.5 66.375Z" fill="#FF4683"/>
</svg>
