<svg width="89" height="55" viewBox="0 0 89 55" fill="none" xmlns="http://www.w3.org/2000/svg">
<path d="M1.87343 50.0728V43.9151H2.88505V50.0728H1.87343ZM5.78795 50.0728V43.9151H6.79957V50.0728H5.78795ZM2.56837 47.3458V46.4222H6.00787V47.3458H2.56837ZM11.6546 50.0728V43.9151H12.6662V50.0728H11.6546ZM12.3495 50.0728V49.1492H15.7978V50.0728H12.3495ZM12.3495 47.3722V46.4838H15.4987V47.3722H12.3495ZM12.3495 44.8388V43.9151H15.7538V44.8388H12.3495ZM19.9045 50.0728L22.4379 43.9151H23.1417L25.6575 50.0728H24.5667L22.5963 45.0851H22.9657L20.9777 50.0728H19.9045ZM21.1536 48.8853V48.0056H24.4172V48.8853H21.1536ZM29.9884 50.0728V43.9151H31V50.0728H29.9884ZM30.6834 50.0728V49.1492H33.9029V50.0728H30.6834ZM39.1358 50.0728V44.0911H40.1474V50.0728H39.1358ZM37.1302 44.8388V43.9151H42.1531V44.8388H37.1302ZM46.5526 50.0728V43.9151H47.5643V50.0728H46.5526ZM50.4672 50.0728V43.9151H51.4788V50.0728H50.4672ZM47.2476 47.3458V46.4222H50.6871V47.3458H47.2476ZM59.1311 50.1608C58.6854 50.1608 58.272 50.0816 57.8908 49.9233C57.5155 49.7591 57.1871 49.5333 56.9056 49.2459C56.6241 48.9527 56.4071 48.6155 56.2546 48.2343C56.1021 47.8473 56.0259 47.4338 56.0259 46.994C56.0259 46.5541 56.1021 46.1436 56.2546 45.7624C56.4071 45.3754 56.6241 45.0382 56.9056 44.7508C57.1871 44.4635 57.5155 44.2377 57.8908 44.0735C58.272 43.9093 58.6854 43.8272 59.1311 43.8272C59.6296 43.8272 60.0606 43.9093 60.4242 44.0735C60.7878 44.2377 61.1104 44.4605 61.3919 44.742L60.7057 45.4282C60.5239 45.2288 60.3011 45.0734 60.0372 44.9619C59.7791 44.8505 59.4771 44.7948 59.1311 44.7948C58.8262 44.7948 58.5476 44.8476 58.2954 44.9532C58.0433 45.0587 57.8234 45.2112 57.6357 45.4106C57.4539 45.6041 57.3131 45.8357 57.2134 46.1055C57.1138 46.3753 57.0639 46.6714 57.0639 46.994C57.0639 47.3165 57.1138 47.6127 57.2134 47.8824C57.3131 48.1522 57.4539 48.3868 57.6357 48.5862C57.8234 48.7797 58.0433 48.9292 58.2954 49.0348C58.5476 49.1404 58.8262 49.1931 59.1311 49.1931C59.5064 49.1931 59.8231 49.1374 60.0812 49.026C60.3451 48.9087 60.5679 48.7504 60.7497 48.551L61.4359 49.2371C61.1544 49.5245 60.823 49.7503 60.4418 49.9145C60.0606 50.0787 59.6237 50.1608 59.1311 50.1608ZM65.2452 50.0728L67.7786 43.9151H68.4823L70.9982 50.0728H69.9074L67.9369 45.0851H68.3064L66.3183 50.0728H65.2452ZM66.4943 48.8853V48.0056H69.7578V48.8853H66.4943ZM76.024 47.4602V46.6245H77.581C77.8919 46.6245 78.1323 46.5453 78.3024 46.387C78.4783 46.2228 78.5663 45.997 78.5663 45.7097C78.5663 45.4516 78.4812 45.2346 78.3112 45.0587C78.1411 44.8828 77.9007 44.7948 77.5898 44.7948H76.024V43.9151H77.6338C78.0209 43.9151 78.361 43.9943 78.6542 44.1527C78.9475 44.3051 79.1732 44.5162 79.3316 44.786C79.4958 45.0499 79.5779 45.3519 79.5779 45.6921C79.5779 46.0498 79.4958 46.3606 79.3316 46.6245C79.1732 46.8884 78.9475 47.0937 78.6542 47.2403C78.361 47.3869 78.0209 47.4602 77.6338 47.4602H76.024ZM75.3291 50.0728V43.9151H76.3407V50.0728H75.3291ZM78.707 50.0728L76.5518 47.3986L77.4931 47.0556L79.9825 50.0728H78.707ZM84.2512 50.0728V43.9151H85.2628V50.0728H84.2512ZM84.9461 50.0728V49.1492H88.3944V50.0728H84.9461ZM84.9461 47.3722V46.4838H88.0953V47.3722H84.9461ZM84.9461 44.8388V43.9151H88.3504V44.8388H84.9461Z" fill="white"/>
<path d="M14.031 34.2459C12.325 34.2459 10.747 33.9473 9.29684 33.3502C7.86804 32.7531 6.60985 31.9214 5.52226 30.8551C4.43467 29.7889 3.59233 28.552 2.99522 27.1445C2.39811 25.7157 2.09956 24.1803 2.09956 22.5383C2.09956 20.8749 2.39811 19.3395 2.99522 17.932C3.59233 16.5246 4.42401 15.2983 5.49028 14.2534C6.55654 13.1871 7.80407 12.3661 9.23286 11.7903C10.683 11.1932 12.2611 10.8947 13.9671 10.8947C15.6518 10.8947 17.2085 11.1932 18.6373 11.7903C20.0874 12.3661 21.3456 13.1871 22.4119 14.2534C23.4995 15.2983 24.3418 16.5352 24.9389 17.964C25.536 19.3715 25.8346 20.9069 25.8346 22.5703C25.8346 24.2123 25.536 25.7477 24.9389 27.1765C24.3418 28.584 23.5101 29.8209 22.4439 30.8871C21.3776 31.9321 20.1194 32.7531 18.6693 33.3502C17.2405 33.9473 15.6944 34.2459 14.031 34.2459ZM13.9671 29.6716C15.3106 29.6716 16.4835 29.373 17.4857 28.7759C18.5094 28.1788 19.2984 27.3471 19.8528 26.2809C20.4073 25.1933 20.6845 23.9457 20.6845 22.5383C20.6845 21.472 20.5246 20.5124 20.2047 19.6594C19.8848 18.785 19.4263 18.0386 18.8292 17.4202C18.2321 16.7805 17.5177 16.3006 16.686 15.9808C15.8757 15.6396 14.9694 15.4689 13.9671 15.4689C12.6236 15.4689 11.44 15.7675 10.4164 16.3646C9.41413 16.9404 8.63575 17.7614 8.0813 18.8277C7.52684 19.8726 7.24961 21.1095 7.24961 22.5383C7.24961 23.6045 7.40955 24.5748 7.72943 25.4492C8.04931 26.3235 8.49714 27.0806 9.07292 27.7203C9.67003 28.3388 10.3844 28.8186 11.2161 29.1598C12.0478 29.501 12.9648 29.6716 13.9671 29.6716ZM34.8157 33.862L43.7723 11.2785H48.3146L57.1752 33.862H51.8653L45.0838 15.1171H46.9071L40.0297 33.862H34.8157ZM39.9018 29.7675V25.6731H52.2171V29.7675H39.9018ZM82.1803 33.862L73.0318 22.0904L81.8924 11.2785H88.0981L78.1178 23.0181V20.9709L88.4179 33.862H82.1803ZM68.5215 33.862V11.2785H73.5436V33.862H68.5215Z" fill="white"/>
</svg>
