<svg width="110" height="68" viewBox="0 0 110 68" fill="none" xmlns="http://www.w3.org/2000/svg">
<path d="M1.08629 62V54.3H2.35129V62H1.08629ZM5.98129 62V54.3H7.24629V62H5.98129ZM1.95529 58.59V57.435H6.25629V58.59H1.95529ZM13.3173 62V54.3H14.5823V62H13.3173ZM14.1863 62V60.845H18.4983V62H14.1863ZM14.1863 58.623V57.512H18.1243V58.623H14.1863ZM14.1863 55.455V54.3H18.4433V55.455H14.1863ZM23.6336 62L26.8016 54.3H27.6816L30.8276 62H29.4636L26.9996 55.763H27.4616L24.9756 62H23.6336ZM25.1956 60.515V59.415H29.2766V60.515H25.1956ZM36.2433 62V54.3H37.5083V62H36.2433ZM37.1123 62V60.845H41.1383V62H37.1123ZM47.6819 62V54.52H48.9469V62H47.6819ZM45.1739 55.455V54.3H51.4549V55.455H45.1739ZM56.9564 62V54.3H58.2214V62H56.9564ZM61.8514 62V54.3H63.1164V62H61.8514ZM57.8254 58.59V57.435H62.1264V58.59H57.8254ZM72.6855 62.11C72.1281 62.11 71.6111 62.011 71.1345 61.813C70.6651 61.6077 70.2545 61.3253 69.9025 60.966C69.5505 60.5993 69.2791 60.1777 69.0885 59.701C68.8978 59.217 68.8025 58.7 68.8025 58.15C68.8025 57.6 68.8978 57.0867 69.0885 56.61C69.2791 56.126 69.5505 55.7043 69.9025 55.345C70.2545 54.9857 70.6651 54.7033 71.1345 54.498C71.6111 54.2927 72.1281 54.19 72.6855 54.19C73.3088 54.19 73.8478 54.2927 74.3025 54.498C74.7571 54.7033 75.1605 54.982 75.5125 55.334L74.6545 56.192C74.4271 55.9427 74.1485 55.7483 73.8185 55.609C73.4958 55.4697 73.1181 55.4 72.6855 55.4C72.3041 55.4 71.9558 55.466 71.6405 55.598C71.3251 55.73 71.0501 55.9207 70.8155 56.17C70.5881 56.412 70.4121 56.7017 70.2875 57.039C70.1628 57.3763 70.1005 57.7467 70.1005 58.15C70.1005 58.5533 70.1628 58.9237 70.2875 59.261C70.4121 59.5983 70.5881 59.8917 70.8155 60.141C71.0501 60.383 71.3251 60.57 71.6405 60.702C71.9558 60.834 72.3041 60.9 72.6855 60.9C73.1548 60.9 73.5508 60.8303 73.8735 60.691C74.2035 60.5443 74.4821 60.3463 74.7095 60.097L75.5675 60.955C75.2155 61.3143 74.8011 61.5967 74.3245 61.802C73.8478 62.0073 73.3015 62.11 72.6855 62.11ZM80.3309 62L83.4989 54.3H84.3789L87.5249 62H86.1609L83.6969 55.763H84.1589L81.6729 62H80.3309ZM81.8929 60.515V59.415H85.9739V60.515H81.8929ZM93.8096 58.733V57.688H95.7566C96.1453 57.688 96.4459 57.589 96.6586 57.391C96.8786 57.1857 96.9886 56.9033 96.9886 56.544C96.9886 56.2213 96.8823 55.95 96.6696 55.73C96.4569 55.51 96.1563 55.4 95.7676 55.4H93.8096V54.3H95.8226C96.3066 54.3 96.7319 54.399 97.0986 54.597C97.4653 54.7877 97.7476 55.0517 97.9456 55.389C98.1509 55.719 98.2536 56.0967 98.2536 56.522C98.2536 56.9693 98.1509 57.358 97.9456 57.688C97.7476 58.018 97.4653 58.2747 97.0986 58.458C96.7319 58.6413 96.3066 58.733 95.8226 58.733H93.8096ZM92.9406 62V54.3H94.2056V62H92.9406ZM97.1646 62L94.4696 58.656L95.6466 58.227L98.7596 62H97.1646ZM104.097 62V54.3H105.362V62H104.097ZM104.966 62V60.845H109.278V62H104.966ZM104.966 58.623V57.512H108.904V58.623H104.966ZM104.966 55.455V54.3H109.223V55.455H104.966Z" fill="#111312"/>
<path d="M16.2891 41.48C14.1557 41.48 12.1824 41.1067 10.3691 40.36C8.5824 39.6133 7.00906 38.5733 5.64906 37.24C4.28906 35.9067 3.23573 34.36 2.48906 32.6C1.7424 30.8133 1.36906 28.8933 1.36906 26.84C1.36906 24.76 1.7424 22.84 2.48906 21.08C3.23573 19.32 4.27573 17.7867 5.60906 16.48C6.9424 15.1467 8.5024 14.12 10.2891 13.4C12.1024 12.6533 14.0757 12.28 16.2091 12.28C18.3157 12.28 20.2624 12.6533 22.0491 13.4C23.8624 14.12 25.4357 15.1467 26.7691 16.48C28.1291 17.7867 29.1824 19.3333 29.9291 21.12C30.6757 22.88 31.0491 24.8 31.0491 26.88C31.0491 28.9333 30.6757 30.8533 29.9291 32.64C29.1824 34.4 28.1424 35.9467 26.8091 37.28C25.4757 38.5867 23.9024 39.6133 22.0891 40.36C20.3024 41.1067 18.3691 41.48 16.2891 41.48ZM16.2091 35.76C17.8891 35.76 19.3557 35.3867 20.6091 34.64C21.8891 33.8933 22.8757 32.8533 23.5691 31.52C24.2624 30.16 24.6091 28.6 24.6091 26.84C24.6091 25.5067 24.4091 24.3067 24.0091 23.24C23.6091 22.1467 23.0357 21.2133 22.2891 20.44C21.5424 19.64 20.6491 19.04 19.6091 18.64C18.5957 18.2133 17.4624 18 16.2091 18C14.5291 18 13.0491 18.3733 11.7691 19.12C10.5157 19.84 9.5424 20.8667 8.84906 22.2C8.15573 23.5067 7.80906 25.0533 7.80906 26.84C7.80906 28.1733 8.00906 29.3867 8.40906 30.48C8.80906 31.5733 9.36906 32.52 10.0891 33.32C10.8357 34.0933 11.7291 34.6933 12.7691 35.12C13.8091 35.5467 14.9557 35.76 16.2091 35.76ZM42.2797 41L53.4797 12.76H59.1597L70.2397 41H63.5997L55.1197 17.56H57.3997L48.7997 41H42.2797ZM48.6397 35.88V30.76H64.0397V35.88H48.6397ZM101.508 41L90.0678 26.28L101.148 12.76H108.908L96.4278 27.44V24.88L109.308 41H101.508ZM84.4278 41V12.76H90.7078V41H84.4278Z" fill="#111312"/>
</svg>
