<svg width="48" height="49" viewBox="0 0 48 49" fill="none" xmlns="http://www.w3.org/2000/svg">
<path d="M6.45757 9.9933L16.4528 3.08107C16.396 2.95476 16.3648 2.81525 16.3648 2.6682C16.3648 2.38824 16.4784 2.13562 16.6629 1.95275C16.8466 1.76988 17.1012 1.65583 17.3813 1.65583C17.6625 1.65583 17.9161 1.76894 18.0997 1.95275C18.2332 2.08566 18.3298 2.25533 18.3723 2.44574C19.3473 2.41181 20.3231 2.37693 21.298 2.343C21.3709 1.97349 21.5526 1.64263 21.8101 1.38718C22.148 1.05067 22.6146 0.842346 23.1305 0.842346C23.6463 0.842346 24.113 1.05067 24.4509 1.38718C24.6781 1.61341 24.8465 1.89714 24.9336 2.21574L28.1612 2.10169C28.1944 1.89243 28.2938 1.70579 28.4376 1.56251C28.6156 1.3853 28.8617 1.27595 29.1333 1.27595C29.405 1.27595 29.6511 1.3853 29.829 1.56251C30.007 1.73972 30.1167 1.9848 30.1167 2.25533C30.1167 2.36656 30.0978 2.47402 30.0637 2.57394C33.3614 4.46955 36.6581 6.36516 39.9558 8.25983C40.0391 8.23437 40.1262 8.22118 40.218 8.22118C40.4669 8.22118 40.6922 8.32204 40.855 8.48417C41.0178 8.6463 41.1191 8.87064 41.1191 9.11855C41.1191 9.20245 41.1077 9.28445 41.0859 9.36175C42.2767 11.1028 43.4683 12.8447 44.6591 14.5857C44.8966 14.4689 45.1636 14.4029 45.4466 14.4029C45.9378 14.4029 46.3817 14.6008 46.7035 14.9213C47.0254 15.2418 47.2241 15.6848 47.2241 16.1731C47.2241 16.6623 47.0254 17.1044 46.7035 17.4249C46.4934 17.6342 46.2312 17.7916 45.9378 17.8755C46.3476 20.9739 46.7575 24.0723 47.1664 27.1707C47.386 27.1886 47.5829 27.2847 47.7296 27.4308C47.8924 27.593 47.9936 27.8173 47.9936 28.0652C47.9936 28.3131 47.8924 28.5375 47.7296 28.6996C47.5668 28.8617 47.3415 28.9626 47.0926 28.9626C47.0386 28.9626 46.9865 28.9579 46.9354 28.9494C45.6671 32.2806 44.3988 35.6118 43.1295 38.9421C43.1825 38.977 43.2327 39.0166 43.2771 39.0609C43.4399 39.223 43.5412 39.4474 43.5412 39.6953C43.5412 39.9432 43.4399 40.1675 43.2771 40.3297C43.1143 40.4918 42.8891 40.5926 42.6401 40.5926C42.4291 40.5926 42.235 40.5201 42.0807 40.3985C38.6979 42.5806 35.315 44.7628 31.9312 46.945C31.9691 47.0439 31.9899 47.1514 31.9899 47.2636C31.9899 47.5115 31.8886 47.7358 31.7258 47.898C31.563 48.0601 31.3378 48.1609 31.0888 48.1609C30.8399 48.1609 30.6146 48.0601 30.4518 47.898C30.3382 47.7848 30.254 47.6406 30.2142 47.4794C27.3293 47.6557 24.4452 47.832 21.5602 48.0073C21.5148 48.1346 21.4419 48.2486 21.3473 48.3429C21.1845 48.505 20.9592 48.6059 20.7102 48.6059C20.4613 48.6059 20.236 48.505 20.0732 48.3429C19.9104 48.1807 19.8092 47.9564 19.8092 47.7085V47.7075C18.6147 47.1882 17.4192 46.6688 16.2247 46.1494C16.0619 46.3078 15.8404 46.4048 15.5953 46.4048C15.3463 46.4048 15.1211 46.304 14.9583 46.1418C14.7955 45.9797 14.6942 45.7554 14.6942 45.5075C14.6942 45.499 14.6942 45.4914 14.6942 45.4839C13.493 44.9617 12.2929 44.4395 11.0917 43.9173L6.88824 40.0836C6.74058 40.1883 6.56074 40.2495 6.36576 40.2495C6.11682 40.2495 5.89155 40.1487 5.72875 39.9865C5.56595 39.8244 5.46467 39.6001 5.46467 39.3522C5.46467 39.1061 5.56406 38.8837 5.72497 38.7215L2.67812 34.082C2.44339 34.1857 2.18309 34.2432 1.90955 34.2432C1.38518 34.2432 0.910972 34.032 0.567386 33.6898C0.2238 33.3477 0.0117798 32.8754 0.0117798 32.3532C0.0117798 31.831 0.2238 31.3587 0.567386 31.0166C0.816321 30.7687 1.1334 30.5896 1.4893 30.5094C1.30094 28.8146 1.11258 27.1198 0.924224 25.4249C1.30188 22.9694 1.67955 20.5129 2.05626 18.0565C1.89724 17.8943 1.79975 17.6738 1.79975 17.4296C1.79975 17.1817 1.90103 16.9574 2.06383 16.7953C2.20202 16.6576 2.3847 16.5653 2.5882 16.5398C3.41073 14.8846 4.23325 13.2284 5.05578 11.5731C4.98952 11.5307 4.928 11.4817 4.87215 11.427C4.67812 11.2338 4.55885 10.967 4.55885 10.6729C4.55885 10.3788 4.67906 10.1121 4.87215 9.91884C5.06619 9.7256 5.33405 9.60683 5.62937 9.60683C5.92468 9.60683 6.19255 9.72654 6.38658 9.91884C6.41119 9.94335 6.43391 9.9688 6.45568 9.99519L6.45757 9.9933ZM2.46989 33.7605L2.06478 33.1441C2.0042 33.1573 1.94078 33.1639 1.87547 33.1639C1.62654 33.1639 1.40127 33.063 1.23847 32.9009C1.07567 32.7387 0.974389 32.5144 0.974389 32.2665C0.974389 31.9978 1.08513 31.7952 1.26781 31.6519C1.3653 31.5755 1.47794 31.5228 1.60004 31.4916L1.53284 30.8865C1.26497 30.9544 1.02645 31.0939 0.837144 31.2824C0.561707 31.5567 0.39228 31.9347 0.39228 32.3523C0.39228 32.7698 0.562654 33.1488 0.837144 33.4221C1.11258 33.6964 1.49213 33.8652 1.91144 33.8652C2.10832 33.8652 2.29668 33.8275 2.46989 33.7596V33.7605ZM1.91144 30.4623C2.43581 30.4623 2.91002 30.6735 3.25361 31.0156C3.37476 31.1363 3.47982 31.2739 3.56501 31.4228L10.3544 27.6326C10.3222 27.5194 10.3042 27.4007 10.3042 27.2772C10.3042 27.0095 10.3866 26.7616 10.5267 26.5551L2.86837 18.3091C2.81442 18.3195 2.75858 18.3242 2.70179 18.3242C2.59861 18.3242 2.49923 18.3072 2.40647 18.2752L1.30662 25.4325L1.86601 30.4614C1.88115 30.4614 1.8963 30.4604 1.91144 30.4604V30.4623ZM3.7174 31.7697C3.77703 31.9535 3.80921 32.1487 3.80921 32.3523C3.80921 32.8745 3.59719 33.3467 3.25361 33.6889C3.17788 33.7643 3.09648 33.8331 3.0094 33.8944L6.043 38.5142C6.14333 38.4755 6.25218 38.4548 6.3667 38.4548C6.61564 38.4548 6.84091 38.5556 7.00371 38.7178C7.1154 38.829 7.19775 38.9695 7.2394 39.1269L10.3497 38.9704C10.3743 38.5019 10.574 38.0806 10.8863 37.7695C11.157 37.4999 11.512 37.3133 11.9086 37.2529C11.7638 34.3553 11.618 31.4577 11.4722 28.5601C11.1646 28.5309 10.8892 28.3942 10.6828 28.1887C10.6185 28.1246 10.5607 28.0539 10.5115 27.9776L3.7174 31.7697ZM2.98574 31.2824C2.7103 31.0081 2.33075 30.8394 1.91144 30.8394H1.90766L1.97675 31.4624C2.16416 31.4784 2.34022 31.5397 2.48219 31.6509C2.57211 31.7216 2.64499 31.8074 2.69516 31.9083L3.23373 31.6076C3.16558 31.4879 3.08229 31.3785 2.98479 31.2824H2.98574ZM2.80212 33.5786C2.86743 33.5315 2.92895 33.4796 2.98574 33.4221C3.26118 33.1478 3.4306 32.7698 3.4306 32.3523C3.4306 32.2165 3.41262 32.0846 3.37855 31.9582L2.77467 32.2948C2.7671 32.5304 2.66771 32.7434 2.51154 32.8999C2.4803 32.931 2.44717 32.9593 2.41215 32.9857L2.80117 33.5786H2.80212ZM21.6899 2.32886L22.3402 2.30624C22.3771 2.24779 22.4206 2.19312 22.4689 2.1441C22.6317 1.98197 22.857 1.88111 23.1059 1.88111C23.3548 1.88111 23.5801 1.98197 23.7429 2.1441C23.777 2.17804 23.8082 2.2148 23.8366 2.25345L24.5427 2.22894C24.4689 2.00931 24.3449 1.81325 24.184 1.65394C23.9142 1.3853 23.5422 1.21939 23.1314 1.21939C22.7207 1.21939 22.3477 1.3853 22.0789 1.65394C21.8943 1.83775 21.758 2.06964 21.6899 2.3298V2.32886ZM24.9951 2.58808C24.997 2.62578 24.9989 2.66349 24.9989 2.70119C24.9989 3.21492 24.7897 3.67963 24.4518 4.01615C24.308 4.15943 24.1395 4.28008 23.9549 4.37057L25.9587 8.40782C26.0089 8.39933 26.06 8.39462 26.113 8.39462C26.237 8.39462 26.3562 8.42007 26.4641 8.46532L28.6023 3.07918C28.5427 3.04148 28.4878 2.99623 28.4376 2.94722C28.3098 2.81996 28.2171 2.65783 28.1745 2.47591L24.9951 2.58808ZM23.599 4.5016C23.4495 4.54025 23.2933 4.56004 23.1314 4.56004C22.6156 4.56004 22.149 4.35172 21.811 4.01521C21.4769 3.68246 21.2687 3.22529 21.264 2.71816L18.3856 2.81902C18.3525 3.03771 18.2493 3.23283 18.0997 3.38177C17.9161 3.56463 17.6615 3.67869 17.3813 3.67869C17.335 3.67869 17.2895 3.67586 17.246 3.66926L15.0822 10.1639C15.317 10.262 15.5281 10.4043 15.7051 10.5806C15.9228 10.7974 16.0893 11.0669 16.184 11.3667L25.2337 9.48429C25.2195 9.42208 25.2128 9.35609 25.2128 9.29011C25.2128 9.0422 25.3141 8.81786 25.4769 8.65573C25.5167 8.61614 25.5612 8.57937 25.6085 8.54733L23.6 4.49971L23.599 4.5016ZM21.6435 2.70591C21.6445 3.11312 21.811 3.48168 22.0799 3.74939C22.3496 4.01803 22.7216 4.18394 23.1324 4.18394C23.2337 4.18394 23.3321 4.17357 23.4268 4.15471L23.1873 3.67209C23.1608 3.67398 23.1343 3.67586 23.1078 3.67586C22.8588 3.67586 22.6336 3.575 22.4708 3.41287C22.308 3.25074 22.2067 3.0264 22.2067 2.77849C22.2067 2.74738 22.2086 2.71628 22.2114 2.68611L21.6435 2.70591ZM23.7874 4.03217C23.935 3.95959 24.0694 3.86344 24.1849 3.74939C24.4547 3.48074 24.6213 3.11029 24.6213 2.70119C24.6213 2.66726 24.6203 2.63427 24.6175 2.60128L23.9947 2.62296C24.0032 2.67291 24.0079 2.72476 24.0079 2.77755C24.0079 3.02545 23.9066 3.2498 23.7438 3.41193C23.687 3.46849 23.6227 3.5175 23.5517 3.55804L23.7874 4.03217ZM44.8749 14.8996L45.155 15.3097C45.2459 15.2805 45.3434 15.2644 45.4447 15.2644C45.704 15.2644 45.9388 15.3691 46.1091 15.5387C46.2795 15.7084 46.3846 15.9422 46.3846 16.2005C46.3846 16.4587 46.2795 16.6925 46.1091 16.8622C46.0287 16.9423 45.934 17.0073 45.829 17.0545L45.8876 17.4947C46.0968 17.4259 46.2842 17.309 46.4357 17.1572C46.6893 16.9046 46.8455 16.5568 46.8455 16.1722C46.8455 15.7876 46.6893 15.4388 46.4357 15.1871C46.182 14.9345 45.8327 14.779 45.4466 14.779C45.2431 14.779 45.049 14.8223 44.8749 14.9006V14.8996ZM45.5658 17.9387C45.5261 17.9415 45.4873 17.9424 45.4466 17.9424C44.9553 17.9424 44.5114 17.7445 44.1896 17.424C44.0069 17.2421 43.863 17.0196 43.7741 16.7726L37.2251 18.2582C37.227 18.2818 37.227 18.3053 37.227 18.3289C37.227 18.557 37.1607 18.7691 37.0462 18.9482L46.5786 27.3262C46.6439 27.281 46.7149 27.2442 46.7916 27.2178L45.5658 17.9396V17.9387ZM43.6841 16.4069C43.6737 16.3296 43.669 16.2514 43.669 16.1722C43.669 15.683 43.8678 15.2409 44.1896 14.9204C44.2369 14.8733 44.2871 14.828 44.3401 14.7865L40.8796 9.72748C40.872 9.73597 40.8635 9.74445 40.8559 9.75199C40.6931 9.91412 40.4679 10.015 40.2189 10.015C40.0978 10.015 39.9823 9.99142 39.8772 9.94806L36.6572 17.3335C36.7405 17.3834 36.8181 17.4428 36.8862 17.5107C36.9951 17.6191 37.0822 17.7482 37.1409 17.8915L43.6841 16.4078V16.4069ZM44.554 15.0985C44.5199 15.1259 44.4877 15.156 44.4575 15.1862C44.2038 15.4388 44.0476 15.7866 44.0476 16.1712C44.0476 16.2221 44.0504 16.2721 44.0561 16.3221L44.5057 16.2203C44.5057 16.2137 44.5057 16.2071 44.5057 16.1995C44.5057 15.9412 44.6108 15.7075 44.7812 15.5378C44.7963 15.5227 44.8115 15.5086 44.8266 15.4954L44.5549 15.0976L44.554 15.0985ZM44.146 16.6878C44.217 16.865 44.324 17.0243 44.4565 17.1572C44.7102 17.4098 45.0594 17.5654 45.4456 17.5654C45.4693 17.5654 45.492 17.5644 45.5147 17.5635L45.4579 17.1355C45.4532 17.1355 45.4485 17.1355 45.4428 17.1355C45.1834 17.1355 44.9487 17.0309 44.7783 16.8612C44.6988 16.7821 44.6335 16.6897 44.5871 16.586L44.1442 16.6859L44.146 16.6878ZM6.64498 10.3232C6.68284 10.4326 6.70367 10.5494 6.70367 10.672C6.70367 10.688 6.70367 10.705 6.70272 10.721L12.4547 11.5006C12.539 11.1471 12.7207 10.8313 12.9696 10.5824C13.3198 10.2337 13.8035 10.0178 14.3383 10.0178C14.4699 10.0178 14.5986 10.031 14.7235 10.0555L16.8901 3.55332C16.8096 3.50902 16.7358 3.4534 16.6715 3.39025L6.64687 10.3232H6.64498ZM6.61848 11.0886C6.56453 11.2159 6.48597 11.3299 6.38942 11.4261C6.19539 11.6193 5.92752 11.7381 5.63221 11.7381C5.55554 11.7381 5.48076 11.7296 5.40788 11.7145L2.99142 16.5784C3.12393 16.6228 3.24319 16.6982 3.33974 16.7943C3.45427 16.9084 3.53756 17.0516 3.57732 17.2138L12.5891 12.7731C12.4689 12.5224 12.4017 12.2415 12.4017 11.9445C12.4017 11.92 12.4017 11.8965 12.4027 11.8719L6.61753 11.0886H6.61848ZM33.6122 35.8626C34.0315 35.9135 34.4064 36.1039 34.6903 36.3867C35.0235 36.7185 35.2298 37.1766 35.2298 37.6837C35.2298 37.8044 35.2185 37.9231 35.1958 38.0372L41.7854 39.4134C41.8204 39.3088 41.8735 39.2126 41.9416 39.1297L34.6023 30.0476C34.5843 30.0485 34.5663 30.0494 34.5483 30.0494C34.4338 30.0494 34.324 30.0278 34.2237 29.9891L33.6122 35.8645V35.8626ZM35.085 38.3973C34.9923 38.616 34.8569 38.8139 34.6903 38.9798C34.3572 39.3116 33.8971 39.5171 33.3879 39.5171C32.8796 39.5171 32.4187 39.3116 32.0855 38.9798C31.7523 38.648 31.546 38.1899 31.546 37.6828C31.546 37.6366 31.5479 37.5904 31.5507 37.5452L26.3723 36.0973C26.3259 36.1746 26.271 36.2453 26.2076 36.3084C26.1518 36.3641 26.0903 36.4131 26.0231 36.4555L28.3165 41.0998C28.3695 41.0951 28.4234 41.0932 28.4774 41.0932C28.9857 41.0932 29.4466 41.2987 29.7798 41.6305C29.9946 41.8444 30.1565 42.1112 30.2445 42.4091L41.3595 39.7085L35.0841 38.3982L35.085 38.3973ZM31.6198 37.1728C31.7069 36.8712 31.8706 36.6025 32.0874 36.3867C32.3865 36.0888 32.7878 35.8927 33.2346 35.856L33.8706 29.7412C33.8404 29.7063 33.8129 29.6696 33.7883 29.6309L26.414 35.0585C26.4869 35.2037 26.5285 35.3686 26.5285 35.5421C26.5285 35.6109 26.5219 35.6788 26.5096 35.7448L31.6208 37.1738L31.6198 37.1728ZM15.5972 44.6101C15.8461 44.6101 16.0714 44.711 16.2342 44.8731C16.397 45.0352 16.4982 45.2596 16.4982 45.5075C16.4982 45.6215 16.4774 45.7299 16.4386 45.8298L19.8953 47.3324C19.9398 47.2353 20.0023 47.1476 20.077 47.0732C20.2398 46.911 20.4651 46.8102 20.714 46.8102C20.7661 46.8102 20.8172 46.8149 20.8674 46.8234L22.7822 41.836L13.9265 39.6821C13.8338 39.9413 13.6842 40.1732 13.494 40.3636C13.4164 40.4409 13.3331 40.5106 13.2432 40.5728L15.4864 44.6186C15.5233 44.6139 15.5612 44.611 15.6 44.611L15.5972 44.6101ZM14.7879 45.1125C14.8314 45.023 14.8901 44.9428 14.9601 44.8731C15.0094 44.8241 15.0633 44.7817 15.122 44.7449L12.909 40.7548C12.6876 40.8481 12.4443 40.8999 12.1887 40.8999C11.6805 40.8999 11.2195 40.6944 10.8863 40.3626C10.6156 40.0931 10.4292 39.7405 10.3686 39.3456L7.25454 39.503C7.23561 39.6123 7.19775 39.7141 7.1438 39.8065L11.3 43.5968L14.7869 45.1125H14.7879ZM21.2157 46.9638C21.263 46.9959 21.3075 47.0326 21.3482 47.0732C21.493 47.2174 21.5886 47.4116 21.6085 47.6265L30.2029 47.1014C30.236 46.9176 30.325 46.7546 30.4528 46.6273C30.4906 46.5896 30.5313 46.5557 30.5758 46.5246L29.5384 44.4244C29.2384 44.6355 28.8721 44.759 28.4774 44.759C27.9691 44.759 27.5081 44.5535 27.175 44.2217C26.8418 43.8899 26.6355 43.4318 26.6355 42.9247C26.6355 42.8738 26.6373 42.8238 26.6421 42.7739L23.1494 41.9246L21.2157 46.9629V46.9638ZM31.0898 46.3652C31.3387 46.3652 31.564 46.4661 31.7268 46.6282L41.8394 40.1053C41.8204 40.0685 41.8034 40.0299 41.7892 39.9903L30.3127 42.7795C30.3165 42.8285 30.3184 42.8776 30.3184 42.9266C30.3184 43.4054 30.1338 43.8419 29.8318 44.1689L30.9241 46.3813C30.9781 46.3709 31.033 46.3662 31.0898 46.3662V46.3652ZM26.7121 42.4053C26.8001 42.1084 26.962 41.8426 27.1759 41.6295C27.3851 41.4212 27.6444 41.2628 27.9331 41.1742L25.6747 36.5997C25.599 36.6167 25.5195 36.6252 25.4381 36.6252C25.3548 36.6252 25.2734 36.6157 25.1949 36.5978L23.2857 41.572L26.7121 42.4053ZM12.2862 37.2341C12.7557 37.2586 13.1788 37.4584 13.4911 37.7686C13.8243 38.1004 14.0307 38.5585 14.0307 39.0656C14.0307 39.1504 14.025 39.2343 14.0136 39.3163L22.9156 41.4815L24.8465 36.4508C24.7822 36.4093 24.7225 36.3612 24.6686 36.3075C24.4717 36.1114 24.3496 35.84 24.3496 35.5411C24.3496 35.429 24.3666 35.3206 24.3988 35.2188C20.4377 32.8745 16.4765 30.5292 12.5162 28.184L12.5115 28.1887C12.3345 28.365 12.1054 28.4903 11.8499 28.5412L12.2862 37.235V37.2341ZM29.8754 2.8982C29.8602 2.91517 29.8451 2.93214 29.829 2.94816C29.6511 3.12537 29.405 3.23472 29.1333 3.23472C29.0718 3.23472 29.0122 3.22906 28.9544 3.21869L26.7812 8.69155C26.9137 8.83671 26.998 9.02618 27.0112 9.2345L39.527 8.54261C39.5441 8.52282 39.5621 8.50302 39.581 8.48417L39.5848 8.4804L29.8744 2.89914L29.8754 2.8982ZM26.9535 9.61343C26.9336 9.66527 26.909 9.71429 26.8806 9.76048L35.3425 17.4221C35.5403 17.2656 35.7911 17.1723 36.0637 17.1723C36.1461 17.1723 36.2275 17.1808 36.3051 17.1968L39.5602 9.73031C39.4097 9.57007 39.3179 9.35421 39.3179 9.11761C39.3179 9.05257 39.3245 8.98941 39.3377 8.92909L26.9544 9.61343H26.9535ZM26.6203 10.0329C26.5086 10.1092 26.3789 10.1611 26.2379 10.1799L24.2001 21.6356C24.5048 21.7223 24.7784 21.8854 24.9961 22.1022C25.1229 22.2285 25.2308 22.3727 25.316 22.5311L34.9298 18.59C34.9099 18.5061 34.9005 18.4184 34.9005 18.3289C34.9005 18.097 34.9686 17.8812 35.0869 17.7002L26.6184 10.0329H26.6203ZM25.8593 10.1526C25.7126 10.1102 25.582 10.031 25.476 9.92638C25.4476 9.8981 25.4211 9.86888 25.3974 9.83683L16.2607 11.7372C16.2682 11.806 16.272 11.8748 16.272 11.9455C16.272 12.4781 16.0553 12.9597 15.7051 13.3085L15.6984 13.3151L22.6856 21.8666C22.9753 21.6771 23.3226 21.5668 23.6956 21.5668C23.7401 21.5668 23.7855 21.5687 23.829 21.5715C24.5067 17.7662 25.1835 13.9599 25.8593 10.1535V10.1526ZM46.5843 28.8052C46.5379 28.7731 46.4944 28.7373 46.4546 28.6977C46.3458 28.5893 46.2653 28.4545 46.2227 28.3028L35.3661 29.5244C35.3217 29.6215 35.2592 29.7101 35.1844 29.7846C35.1276 29.8411 35.0633 29.8901 34.9932 29.9307L42.235 38.8922C42.3571 38.8309 42.4944 38.796 42.6401 38.796C42.6865 38.796 42.7319 38.7998 42.7755 38.8064L46.5843 28.8052ZM46.2009 27.9267C46.2189 27.8088 46.2606 27.6985 46.3193 27.6015L36.7935 19.23C36.5938 19.3912 36.3401 19.4874 36.0628 19.4874C36.0533 19.4874 36.0438 19.4874 36.0353 19.4874L34.4452 27.8446L34.4016 28.2669C34.449 28.2594 34.4972 28.2556 34.5474 28.2556C34.7963 28.2556 35.0216 28.3565 35.1844 28.5186C35.3444 28.6779 35.4447 28.8966 35.4485 29.1389L46.2019 27.9285L46.2009 27.9267ZM25.4372 23.9931L33.793 28.66C33.8271 28.6082 33.8659 28.561 33.9094 28.5167C33.9388 28.4875 33.97 28.4602 34.0032 28.4347L34.0694 27.7956L34.0713 27.7806L35.6624 19.4157C35.5024 19.3573 35.3586 19.2649 35.2403 19.1471C35.1768 19.0839 35.121 19.0132 35.0737 18.9369L25.4599 22.878C25.5091 23.0429 25.5356 23.2183 25.5356 23.3983C25.5356 23.6057 25.5006 23.8055 25.4372 23.9922V23.9931ZM33.6567 29.0154L25.2781 24.3362C25.1996 24.4682 25.1049 24.5888 24.997 24.6963C24.7623 24.9301 24.4651 25.1007 24.1319 25.1817L25.4163 34.4581C25.423 34.4581 25.4305 34.4581 25.4372 34.4581C25.7277 34.4581 25.9918 34.5712 26.1868 34.7569L33.6529 29.2614C33.6482 29.2256 33.6463 29.1888 33.6463 29.1521C33.6463 29.1059 33.6501 29.0606 33.6567 29.0163V29.0154ZM15.405 13.5517C15.0983 13.7544 14.7311 13.8722 14.3354 13.8722C14.2843 13.8722 14.2342 13.8703 14.184 13.8665L12.0061 26.0574C12.1982 26.1215 12.3695 26.229 12.5096 26.3685C12.6734 26.5316 12.7926 26.738 12.8504 26.969L21.9019 23.8234C21.8697 23.6877 21.8527 23.5454 21.8527 23.4002C21.8527 22.894 22.059 22.4359 22.3913 22.1041L15.4041 13.5526L15.405 13.5517ZM13.813 13.8015C13.4883 13.711 13.1987 13.5385 12.9668 13.3085C12.9005 13.2425 12.839 13.1718 12.7832 13.0974L3.57826 17.6332C3.53945 17.7991 3.45427 17.9481 3.33785 18.064C3.30566 18.0961 3.27064 18.1262 3.23373 18.1526L10.7813 26.279C11.0037 26.0989 11.2867 25.9915 11.5962 25.9915C11.6085 25.9915 11.6218 25.9915 11.6341 25.9924C12.361 21.9288 13.0879 17.8651 13.813 13.8015ZM12.8863 27.3545C12.875 27.543 12.8239 27.7212 12.7396 27.8795L24.5711 34.8841C24.6004 34.8455 24.6326 34.8087 24.6667 34.7748C24.7727 34.6692 24.9014 34.5844 25.0444 34.5297C24.6156 31.4304 24.1868 28.331 23.7571 25.2317C23.7363 25.2326 23.7145 25.2326 23.6937 25.2326C23.1854 25.2326 22.7244 25.0272 22.3913 24.6954C22.2408 24.5455 22.1168 24.3711 22.0259 24.1769L12.8863 27.3535V27.3545ZM2.74438 17.4296H2.70084L2.73113 17.4598C2.73207 17.4532 2.73965 17.4353 2.74343 17.4296H2.74438Z" fill="white"/>
<ellipse cx="28.5145" cy="42.874" rx="1.91927" ry="1.91054" fill="white"/>
<ellipse cx="36.0464" cy="18.3235" rx="1.24753" ry="1.24185" fill="white"/>
<ellipse cx="11.6243" cy="27.2078" rx="1.43946" ry="1.43291" fill="white"/>
<ellipse cx="12.1977" cy="39.1005" rx="1.91927" ry="1.91054" fill="white"/>
<ellipse cx="33.3596" cy="37.7158" rx="1.91927" ry="1.91054" fill="white"/>
<ellipse cx="23.7619" cy="23.3866" rx="1.91927" ry="1.91054" fill="white"/>
<ellipse cx="14.3577" cy="11.9665" rx="1.96726" ry="1.9583" fill="white"/>
<path d="M22.9678 4.92441C22.6722 4.92441 22.3945 4.86854 22.1345 4.7568C21.8745 4.64507 21.6484 4.49356 21.4561 4.30227C21.2638 4.11084 21.1116 3.88574 20.9995 3.62696C20.8874 3.36818 20.8313 3.09167 20.8311 2.79744C20.8311 2.50321 20.8872 2.2267 20.9995 1.96792C21.1117 1.70914 21.2639 1.48404 21.4561 1.29261C21.6484 1.10118 21.8745 0.949671 22.1345 0.838076C22.3945 0.726481 22.6722 0.670613 22.9678 0.670471C23.2634 0.670471 23.5412 0.72634 23.8011 0.838076C24.0611 0.949813 24.2872 1.10132 24.4795 1.29261C24.6718 1.48404 24.8241 1.70914 24.9363 1.96792C25.0486 2.2267 25.1046 2.50321 25.1045 2.79744C25.1045 3.09167 25.0484 3.36818 24.9361 3.62696C24.8239 3.88574 24.6717 4.11084 24.4795 4.30227C24.2872 4.4937 24.0611 4.64528 23.8011 4.75702C23.5412 4.86875 23.2634 4.92455 22.9678 4.92441Z" fill="white"/>
<path d="M45.3323 18.2312C45.0368 18.2312 44.759 18.1754 44.499 18.0636C44.2391 17.9519 44.0129 17.8004 43.8206 17.6091C43.6283 17.4177 43.4761 17.1926 43.364 16.9338C43.2519 16.675 43.1958 16.3985 43.1956 16.1043C43.1956 15.81 43.2518 15.5335 43.364 15.2747C43.4763 15.016 43.6285 14.7909 43.8206 14.5994C44.0129 14.408 44.2391 14.2565 44.499 14.1449C44.759 14.0333 45.0368 13.9774 45.3323 13.9773C45.6279 13.9773 45.9057 14.0332 46.1657 14.1449C46.4256 14.2566 46.6517 14.4081 46.8441 14.5994C47.0364 14.7909 47.1886 15.016 47.3009 15.2747C47.4131 15.5335 47.4692 15.81 47.469 16.1043C47.469 16.3985 47.4129 16.675 47.3007 16.9338C47.1884 17.1926 47.0362 17.4177 46.8441 17.6091C46.6517 17.8005 46.4256 17.9521 46.1657 18.0638C45.9057 18.1756 45.6279 18.2314 45.3323 18.2312Z" fill="white"/>
<path d="M2.14896 34.3512C1.85338 34.3512 1.57561 34.2953 1.31565 34.1836C1.05569 34.0718 0.829553 33.9203 0.637251 33.729C0.444948 33.5376 0.292745 33.3125 0.180639 33.0537C0.0685343 32.7949 0.0124105 32.5184 0.0122681 32.2242C0.0122681 31.93 0.0683919 31.6535 0.180639 31.3947C0.292887 31.1359 0.445091 30.9108 0.637251 30.7194C0.829553 30.5279 1.05569 30.3764 1.31565 30.2648C1.57561 30.1532 1.85338 30.0974 2.14896 30.0972C2.44454 30.0972 2.72231 30.1531 2.98227 30.2648C3.24223 30.3766 3.46837 30.5281 3.66067 30.7194C3.85297 30.9108 4.00525 31.1359 4.11749 31.3947C4.22974 31.6535 4.2858 31.93 4.28565 32.2242C4.28565 32.5184 4.22953 32.7949 4.11728 33.0537C4.00503 33.3125 3.85283 33.5376 3.66067 33.729C3.46837 33.9205 3.24223 34.072 2.98227 34.1838C2.72231 34.2955 2.44454 34.3513 2.14896 34.3512Z" fill="white"/>
</svg>
