<svg width="72" height="72" viewBox="0 0 72 72" fill="none" xmlns="http://www.w3.org/2000/svg">
<g clip-path="url(#clip0_1_9060)">
<mask id="mask0_1_9060" style="mask-type:luminance" maskUnits="userSpaceOnUse" x="0" y="0" width="72" height="73">
<path d="M71.9999 0H0V72.0009H71.9999V0Z" fill="white"/>
</mask>
<g mask="url(#mask0_1_9060)">
<path fill-rule="evenodd" clip-rule="evenodd" d="M29.25 44.4696V33.7505C29.25 30.0222 32.2717 27.0004 35.9999 27.0004C39.7282 27.0004 42.7499 30.0222 42.7499 33.7505V39.7828C42.7499 40.6828 43.2854 41.4973 44.1134 41.8506C46.9979 43.0881 51.5249 45.0276 54.4094 46.2629C56.8912 47.3271 58.4999 49.7684 58.4999 52.4684V65.2508C58.4999 67.0419 57.7889 68.7586 56.5222 70.0232C55.2577 71.2899 53.5409 72.0009 51.7499 72.0009C47.2814 72.0009 40.4684 72.0009 35.9999 72.0009C34.2089 72.0009 32.4922 71.2899 31.2277 70.0232C29.9609 68.7586 29.25 67.0419 29.25 65.2508C29.25 64.9831 29.25 64.7243 29.25 64.4791C29.25 63.8828 29.0137 63.3091 28.5907 62.8883C26.5725 60.8678 22.6642 56.9617 19.9755 54.273C18.711 53.0084 18 51.2917 18 49.5029C18 47.7141 18.711 45.9974 19.9755 44.7328C19.9777 44.7306 19.98 44.7283 19.9822 44.7261C21.2467 43.4616 22.9635 42.7506 24.7522 42.7506C26.415 42.7506 28.017 43.3648 29.25 44.4696ZM33.7499 45.0006V49.8877C33.7499 50.7967 33.2009 51.6179 32.3617 51.9644C31.5202 52.3132 30.5527 52.1219 29.9092 51.4784L26.3407 47.9076C25.9177 47.4869 25.3485 47.2506 24.7522 47.2506C24.156 47.2506 23.5845 47.4869 23.1637 47.9076C23.1615 47.9099 23.1592 47.9121 23.157 47.9144C22.7362 48.3351 22.5 48.9066 22.5 49.5029C22.5 50.0992 22.7362 50.6684 23.157 51.0914C25.8457 53.7802 29.754 57.6862 31.7722 59.7068C33.0389 60.9713 33.7499 62.6881 33.7499 64.4791C33.7499 64.7243 33.7499 64.9831 33.7499 65.2508C33.7499 65.8471 33.9862 66.4209 34.4092 66.8416C34.8299 67.2646 35.4037 67.5009 35.9999 67.5009H51.7499C52.3462 67.5009 52.9199 67.2646 53.3407 66.8416C53.7637 66.4209 53.9999 65.8471 53.9999 65.2508C53.9999 60.1298 53.9999 52.4684 53.9999 52.4684C53.9999 51.5684 53.4644 50.7539 52.6364 50.4007C49.7519 49.1631 45.2249 47.2236 42.3404 45.9884C39.8587 44.9241 38.2499 42.4828 38.2499 39.7828V33.7505C38.2499 32.5084 37.2419 31.5004 35.9999 31.5004C34.7579 31.5004 33.7499 32.5084 33.7499 33.7505C33.7499 38.4058 33.7499 45.0006 33.7499 45.0006Z" fill="#FF4683"/>
<path d="M36 4.50006C37.2426 4.50006 38.25 3.49268 38.25 2.25003C38.25 1.00737 37.2426 0 36 0C34.7574 0 33.75 1.00737 33.75 2.25003C33.75 3.49268 34.7574 4.50006 36 4.50006Z" fill="#FF4683"/>
<path d="M44.9999 4.50006C46.2425 4.50006 47.2499 3.49268 47.2499 2.25003C47.2499 1.00737 46.2425 0 44.9999 0C43.7572 0 42.7499 1.00737 42.7499 2.25003C42.7499 3.49268 43.7572 4.50006 44.9999 4.50006Z" fill="#FF4683"/>
<path d="M53.9997 4.50006C55.2424 4.50006 56.2497 3.49268 56.2497 2.25003C56.2497 1.00737 55.2424 0 53.9997 0C52.7571 0 51.7497 1.00737 51.7497 2.25003C51.7497 3.49268 52.7571 4.50006 53.9997 4.50006Z" fill="#FF4683"/>
<path d="M62.9996 4.50006C64.2422 4.50006 65.2496 3.49268 65.2496 2.25003C65.2496 1.00737 64.2422 0 62.9996 0C61.757 0 60.7496 1.00737 60.7496 2.25003C60.7496 3.49268 61.757 4.50006 62.9996 4.50006Z" fill="#FF4683"/>
<path d="M26.9996 4.50006C28.2423 4.50006 29.2496 3.49268 29.2496 2.25003C29.2496 1.00737 28.2423 0 26.9996 0C25.757 0 24.7496 1.00737 24.7496 2.25003C24.7496 3.49268 25.757 4.50006 26.9996 4.50006Z" fill="#FF4683"/>
<path d="M17.9998 4.50006C19.2424 4.50006 20.2498 3.49268 20.2498 2.25003C20.2498 1.00737 19.2424 0 17.9998 0C16.7571 0 15.7498 1.00737 15.7498 2.25003C15.7498 3.49268 16.7571 4.50006 17.9998 4.50006Z" fill="#FF4683"/>
<path d="M8.9999 4.50006C10.2425 4.50006 11.2499 3.49268 11.2499 2.25003C11.2499 1.00737 10.2425 0 8.9999 0C7.75727 0 6.74991 1.00737 6.74991 2.25003C6.74991 3.49268 7.75727 4.50006 8.9999 4.50006Z" fill="#FF4683"/>
<path d="M36 13.5002C37.2426 13.5002 38.25 12.4928 38.25 11.2502C38.25 10.0075 37.2426 9.00012 36 9.00012C34.7574 9.00012 33.75 10.0075 33.75 11.2502C33.75 12.4928 34.7574 13.5002 36 13.5002Z" fill="#FF4683"/>
<path d="M44.9999 13.5002C46.2425 13.5002 47.2499 12.4928 47.2499 11.2502C47.2499 10.0075 46.2425 9.00012 44.9999 9.00012C43.7572 9.00012 42.7499 10.0075 42.7499 11.2502C42.7499 12.4928 43.7572 13.5002 44.9999 13.5002Z" fill="#FF4683"/>
<path d="M53.9997 13.5002C55.2424 13.5002 56.2497 12.4928 56.2497 11.2502C56.2497 10.0075 55.2424 9.00012 53.9997 9.00012C52.7571 9.00012 51.7497 10.0075 51.7497 11.2502C51.7497 12.4928 52.7571 13.5002 53.9997 13.5002Z" fill="#FF4683"/>
<path d="M62.9996 13.5002C64.2422 13.5002 65.2496 12.4928 65.2496 11.2502C65.2496 10.0075 64.2422 9.00012 62.9996 9.00012C61.757 9.00012 60.7496 10.0075 60.7496 11.2502C60.7496 12.4928 61.757 13.5002 62.9996 13.5002Z" fill="#FF4683"/>
<path d="M26.9996 13.5002C28.2423 13.5002 29.2496 12.4928 29.2496 11.2502C29.2496 10.0075 28.2423 9.00012 26.9996 9.00012C25.757 9.00012 24.7496 10.0075 24.7496 11.2502C24.7496 12.4928 25.757 13.5002 26.9996 13.5002Z" fill="#FF4683"/>
<path d="M17.9998 13.5002C19.2424 13.5002 20.2498 12.4928 20.2498 11.2502C20.2498 10.0075 19.2424 9.00012 17.9998 9.00012C16.7571 9.00012 15.7498 10.0075 15.7498 11.2502C15.7498 12.4928 16.7571 13.5002 17.9998 13.5002Z" fill="#FF4683"/>
<path d="M8.9999 13.5002C10.2425 13.5002 11.2499 12.4928 11.2499 11.2502C11.2499 10.0075 10.2425 9.00012 8.9999 9.00012C7.75727 9.00012 6.74991 10.0075 6.74991 11.2502C6.74991 12.4928 7.75727 13.5002 8.9999 13.5002Z" fill="#FF4683"/>
<path d="M36 22.5003C37.2426 22.5003 38.25 21.4929 38.25 20.2503C38.25 19.0076 37.2426 18.0002 36 18.0002C34.7574 18.0002 33.75 19.0076 33.75 20.2503C33.75 21.4929 34.7574 22.5003 36 22.5003Z" fill="#FF4683"/>
<path d="M44.9999 22.5003C46.2425 22.5003 47.2499 21.4929 47.2499 20.2503C47.2499 19.0076 46.2425 18.0002 44.9999 18.0002C43.7572 18.0002 42.7499 19.0076 42.7499 20.2503C42.7499 21.4929 43.7572 22.5003 44.9999 22.5003Z" fill="#FF4683"/>
<path d="M53.9997 22.5003C55.2424 22.5003 56.2497 21.4929 56.2497 20.2503C56.2497 19.0076 55.2424 18.0002 53.9997 18.0002C52.7571 18.0002 51.7497 19.0076 51.7497 20.2503C51.7497 21.4929 52.7571 22.5003 53.9997 22.5003Z" fill="#FF4683"/>
<path d="M62.9996 22.5003C64.2422 22.5003 65.2496 21.4929 65.2496 20.2503C65.2496 19.0076 64.2422 18.0002 62.9996 18.0002C61.757 18.0002 60.7496 19.0076 60.7496 20.2503C60.7496 21.4929 61.757 22.5003 62.9996 22.5003Z" fill="#FF4683"/>
<path d="M26.9996 22.5003C28.2423 22.5003 29.2496 21.4929 29.2496 20.2503C29.2496 19.0076 28.2423 18.0002 26.9996 18.0002C25.757 18.0002 24.7496 19.0076 24.7496 20.2503C24.7496 21.4929 25.757 22.5003 26.9996 22.5003Z" fill="#FF4683"/>
<path d="M17.9998 22.5003C19.2424 22.5003 20.2498 21.4929 20.2498 20.2503C20.2498 19.0076 19.2424 18.0002 17.9998 18.0002C16.7571 18.0002 15.7498 19.0076 15.7498 20.2503C15.7498 21.4929 16.7571 22.5003 17.9998 22.5003Z" fill="#FF4683"/>
<path d="M8.9999 22.5003C10.2425 22.5003 11.2499 21.4929 11.2499 20.2503C11.2499 19.0076 10.2425 18.0002 8.9999 18.0002C7.75727 18.0002 6.74991 19.0076 6.74991 20.2503C6.74991 21.4929 7.75727 22.5003 8.9999 22.5003Z" fill="#FF4683"/>
</g>
</g>
<defs>
<clipPath id="clip0_1_9060">
<rect width="72" height="72" fill="white"/>
</clipPath>
</defs>
</svg>
