<svg width="16" height="16" viewBox="0 0 16 16" fill="none" xmlns="http://www.w3.org/2000/svg">
<path d="M13.8654 7.77558C13.8173 6.17729 13.2353 4.82019 12.1194 3.70427C11.0035 2.58836 9.64638 2.00636 8.04808 1.95827V0.708313C9.02029 0.729674 9.93054 0.928924 10.7788 1.30606C11.6271 1.6832 12.368 2.18854 13.0016 2.82208C13.6351 3.45563 14.1405 4.19654 14.5176 5.04483C14.8947 5.89311 15.094 6.80336 15.1154 7.77558H13.8654ZM10.5321 7.77558C10.484 7.10785 10.2249 6.53761 9.75481 6.06486C9.28473 5.59209 8.71582 5.33434 8.04808 5.29161V4.04165C9.06196 4.08438 9.92573 4.46392 10.6394 5.18025C11.3531 5.8966 11.7339 6.76171 11.782 7.77558H10.5321ZM14.2003 15.0833C12.6298 15.0833 11.0521 14.7182 9.46715 13.9879C7.88221 13.2577 6.42469 12.2275 5.09456 10.8974C3.76978 9.56725 2.74228 8.11106 2.01204 6.52881C1.2818 4.94655 0.916687 3.37017 0.916687 1.79967C0.916687 1.54967 1.00002 1.34 1.16669 1.17067C1.33335 1.00132 1.54169 0.916646 1.79169 0.916646H4.5096C4.72008 0.916646 4.90571 0.985292 5.0665 1.12258C5.22729 1.25988 5.32958 1.42948 5.37337 1.6314L5.85094 4.08329C5.88406 4.31086 5.87712 4.50638 5.8301 4.66983C5.7831 4.83329 5.6987 4.97058 5.5769 5.08169L3.65223 6.95509C3.96206 7.52239 4.31597 8.05898 4.71394 8.56486C5.11191 9.07074 5.54273 9.55392 6.0064 10.0144C6.46367 10.4717 6.94979 10.8963 7.46475 11.2884C7.97971 11.6805 8.5358 12.0454 9.13302 12.383L11.0032 10.4968C11.1336 10.3611 11.2914 10.266 11.4768 10.2115C11.6621 10.157 11.8547 10.1437 12.0545 10.1715L14.3686 10.6426C14.579 10.6982 14.7508 10.8055 14.8838 10.9647C15.0168 11.1239 15.0833 11.3045 15.0833 11.5064V14.2083C15.0833 14.4583 14.9986 14.6666 14.8293 14.8333C14.66 14.9999 14.4503 15.0833 14.2003 15.0833ZM3.0609 5.77242L4.54808 4.34933C4.57479 4.32796 4.59215 4.29858 4.60017 4.26119C4.60818 4.22379 4.60685 4.18906 4.59617 4.15702L4.23398 2.29483C4.2233 2.2521 4.2046 2.22005 4.1779 2.19869C4.15119 2.17731 4.11646 2.16663 4.07373 2.16663H2.29167C2.25962 2.16663 2.23292 2.17731 2.21154 2.19869C2.19017 2.22005 2.17948 2.24676 2.17948 2.27881C2.22221 2.84826 2.31543 3.42679 2.45912 4.0144C2.60283 4.60201 2.80342 5.18802 3.0609 5.77242ZM10.3109 12.9743C10.8632 13.2318 11.4394 13.4287 12.0392 13.5649C12.6392 13.7011 13.1998 13.782 13.7211 13.8076C13.7532 13.8076 13.7799 13.797 13.8013 13.7756C13.8226 13.7542 13.8333 13.7275 13.8333 13.6955V11.9423C13.8333 11.8995 13.8226 11.8648 13.8013 11.8381C13.7799 11.8114 13.7479 11.7927 13.7051 11.782L11.9551 11.4262C11.9231 11.4156 11.895 11.4142 11.871 11.4222C11.847 11.4302 11.8216 11.4476 11.7949 11.4743L10.3109 12.9743Z" fill="#FF4683"/>
</svg>
