<svg width="72" height="72" viewBox="0 0 72 72" fill="none" xmlns="http://www.w3.org/2000/svg">
<path fill-rule="evenodd" clip-rule="evenodd" d="M22.5 10.845L26.01 9L66.51 36V39.735L40.5 57.0735V51.6735L61.2 37.89L27 15.075V31.5H22.5V10.845Z" fill="#FF4683"/>
<path fill-rule="evenodd" clip-rule="evenodd" d="M21.924 35.136C18.099 34.8975 14.2515 35.8515 11.1105 38.0205C7.72199 40.203 5.56199 43.3485 4.36499 47.1555C3.15449 50.8005 3.40649 54.8955 4.84199 58.4865C6.29853 62.0624 8.93016 65.0353 12.303 66.915C15.705 68.859 19.575 69.3315 23.4045 68.616C27.279 67.887 30.6495 65.7135 33.048 62.8335L33.0705 62.8065C35.451 59.715 36.9045 56.106 36.9045 52.2225C36.9603 47.6735 35.2393 43.2822 32.1075 39.9825L32.0805 39.96C29.448 37.3275 25.8345 35.379 21.924 35.136ZM13.2795 41.3235C15.5835 39.645 18.5535 38.997 21.3435 39.2085C24.2955 39.4245 26.838 40.6845 28.9845 42.8265C31.3065 45.1485 32.598 48.5595 32.598 51.9975V52.0605C32.8095 54.981 31.7745 57.7305 30.051 60.111C28.134 62.442 25.5825 63.936 22.806 64.5705C19.9995 65.2115 17.0543 64.7576 14.571 63.3015C11.997 61.803 10.071 59.6655 8.77499 56.8665C7.51499 54.135 7.50599 51.174 8.36549 48.384V48.366C9.15058 45.5259 10.8848 43.0404 13.2795 41.3235ZM28.593 48.8385L19.593 57.8385H16.407L11.907 53.3385L15.093 50.157L18 53.0685L25.407 45.657L28.593 48.8385Z" fill="#FF4683"/>
</svg>
