<svg width="96" height="96" viewBox="0 0 96 96" fill="none" xmlns="http://www.w3.org/2000/svg">
<path d="M71.6791 83.176C73.2525 83.2616 71.7932 80.6872 70.5574 80.5901C53.7024 79.4938 36.6458 68.3853 38.7774 49.8252C47.7658 51.6663 57.4976 50.8182 65.1923 47.3559C71.2222 44.626 76.6681 38.7553 74.8364 31.6611C73.3538 26.0659 67.7808 22.3592 62.4827 20.8896C48.2533 16.9208 38.6494 33.2106 36.5228 46.6616C33.8967 46.0154 31.4021 45.1461 29.0562 43.9735C12.6466 36.1032 11.2993 14.6199 25.9788 4.35976C27.0657 3.58725 25.0058 1.47064 23.8387 2.226C11.4304 10.8782 9.31008 28.603 19.8101 39.8154C24.0387 44.3232 29.892 47.5035 36.2314 49.1961C36.0314 50.9126 36.0087 52.5832 36.1634 54.208C37.3786 72.3958 55.2417 82.0854 71.6791 83.176ZM50.3771 26.1719C54.393 22.6756 59.2217 22.0342 64.1937 23.853C69.326 25.706 73.7033 29.9106 72.1765 35.8666C70.0721 44.1284 59.7341 47.0247 52.3652 47.7923C48.0858 48.2163 43.5087 48.0738 39.149 47.3077C40.6012 39.744 44.605 31.2188 50.3771 26.1719Z" fill="#B3B3B3"/>
<path d="M80.753 82.2708C77.6058 78.581 74.7847 74.5421 72.2382 70.3945C71.3741 68.9529 69.2458 69.5024 70.2988 71.2358C72.6564 75.0916 75.2257 78.7415 78.0868 82.2025C72.7091 84.2343 67.8521 86.9639 63.2583 90.4202C62.2515 91.2099 64.2943 93.4066 65.3984 92.5539C70.1065 88.9546 75.221 86.1963 80.8562 84.1359C81.7601 83.8269 81.0849 82.677 80.753 82.2708Z" fill="#B3B3B3"/>
</svg>
