<svg width="60" height="60" viewBox="0 0 60 60" fill="none" xmlns="http://www.w3.org/2000/svg">
<path d="M8.06028 11.4953L20.5591 2.81226C20.488 2.65359 20.449 2.47834 20.449 2.29362C20.449 1.94194 20.591 1.6246 20.8218 1.39488C21.0514 1.16516 21.3698 1.02189 21.7202 1.02189C22.0717 1.02189 22.3889 1.16398 22.6185 1.39488C22.7854 1.56184 22.9061 1.77498 22.9594 2.01417C24.1785 1.97154 25.3988 1.92773 26.6179 1.8851C26.709 1.42093 26.9363 1.00531 27.2582 0.684415C27.6807 0.261688 28.2643 0 28.9093 0C29.5544 0 30.1379 0.261688 30.5604 0.684415C30.8445 0.968601 31.0552 1.32502 31.1641 1.72525L35.2001 1.58197C35.2416 1.3191 35.3658 1.08464 35.5457 0.90466C35.7683 0.682047 36.076 0.54469 36.4157 0.54469C36.7554 0.54469 37.0631 0.682047 37.2856 0.90466C37.5081 1.12727 37.6454 1.43514 37.6454 1.77498C37.6454 1.9147 37.6218 2.04969 37.5792 2.17521C41.7028 4.55645 45.8253 6.9377 49.9489 9.31776C50.0531 9.28578 50.162 9.26921 50.2768 9.26921C50.588 9.26921 50.8697 9.39591 51.0733 9.59957C51.2769 9.80324 51.4035 10.0851 51.4035 10.3965C51.4035 10.5019 51.3893 10.6049 51.3621 10.702C52.8511 12.889 54.3412 15.0773 55.8302 17.2643C56.1273 17.1175 56.4611 17.0346 56.8149 17.0346C57.4292 17.0346 57.9843 17.2833 58.3868 17.6859C58.7892 18.0885 59.0377 18.645 59.0377 19.2584C59.0377 19.8729 58.7892 20.4283 58.3868 20.8309C58.124 21.0937 57.7961 21.2915 57.4292 21.3969C57.9417 25.289 58.4542 29.1812 58.9655 33.0734C59.2401 33.0959 59.4863 33.2166 59.6698 33.4002C59.8734 33.6038 60 33.8857 60 34.1971C60 34.5085 59.8734 34.7903 59.6698 34.994C59.4662 35.1976 59.1845 35.3243 58.8732 35.3243C58.8058 35.3243 58.7407 35.3184 58.6767 35.3078C57.0907 39.4924 55.5047 43.6771 53.9175 47.8605C53.9838 47.9043 54.0465 47.9541 54.1021 48.0097C54.3057 48.2134 54.4324 48.4952 54.4324 48.8066C54.4324 49.118 54.3057 49.3999 54.1021 49.6035C53.8986 49.8072 53.6169 49.9339 53.3056 49.9339C53.0416 49.9339 52.799 49.8427 52.6061 49.69C48.3759 52.4312 44.1457 55.1724 39.9144 57.9136C39.9617 58.0379 39.9878 58.1729 39.9878 58.3138C39.9878 58.6253 39.8611 58.9071 39.6575 59.1107C39.454 59.3144 39.1723 59.4411 38.861 59.4411C38.5497 59.4411 38.268 59.3144 38.0644 59.1107C37.9224 58.9686 37.8171 58.7875 37.7673 58.585C34.1597 58.8064 30.5533 59.0278 26.9457 59.2481C26.8889 59.4079 26.7978 59.5512 26.6794 59.6696C26.4758 59.8733 26.1941 60 25.8829 60C25.5716 60 25.2899 59.8733 25.0863 59.6696C24.8827 59.466 24.7561 59.1841 24.7561 58.8727V58.8715C23.2624 58.2191 21.7675 57.5667 20.2738 56.9142C20.0702 57.1131 19.7933 57.2351 19.4867 57.2351C19.1754 57.2351 18.8937 57.1084 18.6902 56.9047C18.4866 56.7011 18.3599 56.4193 18.3599 56.1078C18.3599 56.0972 18.3599 56.0877 18.3599 56.0782C16.8579 55.4222 15.3571 54.7662 13.8552 54.1102L8.59882 49.2945C8.41418 49.4259 8.1893 49.5029 7.94548 49.5029C7.63419 49.5029 7.35249 49.3762 7.14892 49.1725C6.94534 48.9688 6.81869 48.687 6.81869 48.3756C6.81869 48.0665 6.94297 47.7871 7.14418 47.5834L3.33419 41.7552C3.04066 41.8855 2.71517 41.9577 2.37311 41.9577C1.7174 41.9577 1.12442 41.6925 0.694771 41.2627C0.265125 40.8328 0 40.2396 0 39.5836C0 38.9276 0.265125 38.3344 0.694771 37.9045C1.00606 37.5931 1.40256 37.3681 1.84759 37.2675C1.61206 35.1384 1.37652 33.0094 1.14099 30.8804C1.61324 27.7958 2.08549 24.71 2.55657 21.6242C2.35772 21.4205 2.23581 21.1435 2.23581 20.8368C2.23581 20.5254 2.36246 20.2435 2.56603 20.0399C2.73884 19.867 2.96727 19.7509 3.22175 19.719C4.25029 17.6397 5.27883 15.5592 6.30738 13.4799C6.22453 13.4266 6.14759 13.365 6.07776 13.2964C5.83512 13.0536 5.68599 12.7185 5.68599 12.3491C5.68599 11.9796 5.83631 11.6445 6.07776 11.4018C6.3204 11.159 6.65536 11.0098 7.02464 11.0098C7.39392 11.0098 7.72888 11.1602 7.97151 11.4018C8.00229 11.4326 8.03069 11.4645 8.05792 11.4977L8.06028 11.4953ZM3.0738 41.3515L2.56722 40.5771C2.49147 40.5936 2.41217 40.6019 2.3305 40.6019C2.01921 40.6019 1.73752 40.4752 1.53394 40.2716C1.33036 40.0679 1.20372 39.7861 1.20372 39.4747C1.20372 39.1372 1.3422 38.8826 1.57063 38.7026C1.69254 38.6067 1.83339 38.5404 1.98607 38.5013L1.90204 37.7411C1.56708 37.8264 1.26881 38.0016 1.0321 38.2384C0.687669 38.583 0.475805 39.0578 0.475805 39.5824C0.475805 40.107 0.688852 40.583 1.0321 40.9264C1.37652 41.2709 1.85114 41.4829 2.37548 41.4829C2.62166 41.4829 2.8572 41.4355 3.0738 41.3503V41.3515ZM2.37548 37.2083C3.03119 37.2083 3.62417 37.4735 4.05381 37.9033C4.20531 38.0549 4.33669 38.2278 4.44322 38.4149L12.9331 33.6536C12.8929 33.5115 12.8704 33.3623 12.8704 33.2072C12.8704 32.8709 12.9734 32.5595 13.1486 32.3001L3.57209 21.9415C3.50463 21.9546 3.43479 21.9605 3.36378 21.9605C3.23477 21.9605 3.11049 21.9392 2.9945 21.8989L1.61916 30.8899L2.31866 37.2071C2.3376 37.2071 2.35654 37.2059 2.37548 37.2059V37.2083ZM4.63378 38.8506C4.70834 39.0815 4.74858 39.3266 4.74858 39.5824C4.74858 40.2384 4.48346 40.8316 4.05381 41.2615C3.95913 41.3562 3.85734 41.4426 3.74845 41.5196L7.54187 47.3229C7.66733 47.2744 7.80344 47.2483 7.94666 47.2483C8.25794 47.2483 8.53964 47.375 8.74322 47.5787C8.88288 47.7184 8.98586 47.8949 9.03793 48.0926L12.9272 47.896C12.958 47.3075 13.2077 46.7782 13.5983 46.3875C13.9368 46.0488 14.3807 45.8144 14.8766 45.7386C14.6955 42.0986 14.5132 38.4587 14.331 34.8187C13.9463 34.782 13.6019 34.6103 13.3439 34.3522C13.2634 34.2717 13.1912 34.1829 13.1296 34.087L4.63378 38.8506ZM3.71886 38.2384C3.37443 37.8939 2.89981 37.6819 2.37548 37.6819H2.37074L2.45714 38.4646C2.6915 38.4847 2.91164 38.5617 3.08918 38.7014C3.20163 38.7902 3.29276 38.898 3.35549 39.0247L4.02896 38.647C3.94374 38.4966 3.83958 38.3592 3.71767 38.2384H3.71886ZM3.48924 41.1229C3.57091 41.0637 3.64784 40.9986 3.71886 40.9264C4.06328 40.5818 4.27515 40.107 4.27515 39.5824C4.27515 39.4119 4.25266 39.2461 4.21005 39.0874L3.45491 39.5102C3.44545 39.8062 3.32117 40.0738 3.12588 40.2704C3.08682 40.3094 3.04539 40.345 3.0016 40.3781L3.48806 41.1229H3.48924ZM27.1079 1.86734L27.921 1.83892C27.9672 1.76551 28.0216 1.69683 28.082 1.63525C28.2856 1.43159 28.5673 1.30489 28.8785 1.30489C29.1898 1.30489 29.4715 1.43159 29.6751 1.63525C29.7177 1.67788 29.7568 1.72406 29.7923 1.77261L30.6752 1.74182C30.5829 1.46593 30.4279 1.21963 30.2267 1.01952C29.8893 0.682047 29.4242 0.473644 28.9105 0.473644C28.3968 0.473644 27.9305 0.682047 27.5943 1.01952C27.3635 1.25042 27.1931 1.54171 27.1079 1.86852V1.86734ZM31.241 2.19297C31.2434 2.24033 31.2457 2.2877 31.2457 2.33506C31.2457 2.9804 30.9842 3.56417 30.5616 3.9869C30.3817 4.16688 30.171 4.31845 29.9402 4.43212L32.4459 9.50366C32.5086 9.493 32.5725 9.48708 32.6388 9.48708C32.7939 9.48708 32.943 9.51905 33.0779 9.57589L35.7517 2.80989C35.6771 2.76253 35.6085 2.70569 35.5457 2.64412C35.386 2.48426 35.27 2.28059 35.2167 2.05206L31.241 2.19297ZM29.4952 4.59671C29.3082 4.64526 29.1129 4.67013 28.9105 4.67013C28.2654 4.67013 27.6819 4.40844 27.2594 3.98571C26.8416 3.56772 26.5812 2.99343 26.5753 2.35638L22.976 2.48308C22.9345 2.75779 22.8055 3.0029 22.6185 3.18999C22.3889 3.41971 22.0705 3.56298 21.7202 3.56298C21.6622 3.56298 21.6053 3.55943 21.5509 3.55114L18.8452 11.7097C19.1387 11.8328 19.4027 12.0116 19.624 12.233C19.8962 12.5054 20.1046 12.844 20.2229 13.2206L31.5393 10.8559C31.5215 10.7778 31.5132 10.6949 31.5132 10.612C31.5132 10.3006 31.6399 10.0187 31.8434 9.81508C31.8932 9.76535 31.9488 9.71917 32.008 9.67891L29.4964 4.59434L29.4952 4.59671ZM27.0499 2.34098C27.0511 2.85252 27.2594 3.31551 27.5955 3.65179C27.9328 3.98926 28.398 4.19767 28.9117 4.19767C29.0383 4.19767 29.1614 4.18464 29.2798 4.16096L28.9803 3.5547C28.9472 3.55706 28.9141 3.55943 28.8809 3.55943C28.5696 3.55943 28.2879 3.43273 28.0844 3.22907C27.8808 3.0254 27.7541 2.74358 27.7541 2.43216C27.7541 2.39309 27.7565 2.35401 27.76 2.31612L27.0499 2.34098ZM29.7307 4.00703C29.9154 3.91585 30.0834 3.79507 30.2278 3.65179C30.5652 3.31432 30.7735 2.84897 30.7735 2.33506C30.7735 2.29244 30.7723 2.25099 30.7687 2.20955L29.9899 2.23678C30.0006 2.29954 30.0065 2.36467 30.0065 2.43098C30.0065 2.7424 29.8799 3.02421 29.6763 3.22788C29.6053 3.29893 29.5248 3.3605 29.436 3.41142L29.7307 4.00703ZM56.1001 17.6586L56.4504 18.1737C56.564 18.137 56.6859 18.1169 56.8126 18.1169C57.1369 18.1169 57.4304 18.2483 57.6435 18.4614C57.8565 18.6746 57.9879 18.9682 57.9879 19.2927C57.9879 19.6171 57.8565 19.9108 57.6435 20.1239C57.5429 20.2246 57.4245 20.3063 57.2931 20.3655L57.3665 20.9185C57.6281 20.832 57.8624 20.6852 58.0518 20.4946C58.369 20.1772 58.5643 19.7403 58.5643 19.2572C58.5643 18.7741 58.369 18.3359 58.0518 18.0198C57.7346 17.7024 57.2979 17.5071 56.8149 17.5071C56.5605 17.5071 56.3178 17.5615 56.1001 17.6598V17.6586ZM56.9641 21.4762C56.9144 21.4797 56.8658 21.4809 56.8149 21.4809C56.2007 21.4809 55.6455 21.2323 55.2431 20.8297C55.0147 20.6011 54.8348 20.3217 54.7235 20.0114L46.5342 21.8776C46.5366 21.9072 46.5366 21.9368 46.5366 21.9664C46.5366 22.253 46.4537 22.5194 46.3105 22.7444L58.2305 33.2687C58.3122 33.2119 58.401 33.1657 58.4968 33.1326L56.9641 21.4774V21.4762ZM54.6111 19.552C54.5981 19.4549 54.5922 19.3566 54.5922 19.2572C54.5922 18.6426 54.8407 18.0873 55.2431 17.6847C55.3023 17.6255 55.365 17.5686 55.4313 17.5165L51.1041 11.1614C51.0946 11.1721 51.084 11.1827 51.0745 11.1922C50.8709 11.3959 50.5892 11.5226 50.2779 11.5226C50.1264 11.5226 49.982 11.493 49.8507 11.4385L45.8241 20.716C45.9282 20.7788 46.0253 20.8533 46.1105 20.9386C46.2466 21.0748 46.3555 21.237 46.4289 21.417L54.6111 19.5532V19.552ZM55.6988 17.9085C55.6562 17.9428 55.616 17.9807 55.5781 18.0186C55.2609 18.3359 55.0656 18.7729 55.0656 19.256C55.0656 19.3199 55.0691 19.3827 55.0762 19.4454L55.6385 19.3176C55.6385 19.3093 55.6385 19.301 55.6385 19.2915C55.6385 18.9671 55.7698 18.6734 55.9829 18.4603C56.0018 18.4413 56.0208 18.4236 56.0397 18.407L55.7 17.9073L55.6988 17.9085ZM55.1887 19.9049C55.2775 20.1275 55.4112 20.3276 55.5769 20.4946C55.8941 20.8119 56.3309 21.0073 56.8138 21.0073C56.8433 21.0073 56.8718 21.0061 56.9002 21.0049L56.8291 20.4673C56.8232 20.4673 56.8173 20.4673 56.8102 20.4673C56.4859 20.4673 56.1924 20.3359 55.9793 20.1228C55.8799 20.0233 55.7982 19.9072 55.7402 19.777L55.1863 19.9025L55.1887 19.9049ZM8.29464 11.9098C8.34198 12.0471 8.36802 12.194 8.36802 12.3479C8.36802 12.368 8.36802 12.3893 8.36684 12.4095L15.5595 13.3887C15.6649 12.9447 15.8921 12.548 16.2034 12.2354C16.6414 11.7973 17.2462 11.5261 17.9149 11.5261C18.0794 11.5261 18.2404 11.5427 18.3966 11.5735L21.1059 3.4055C21.0053 3.34985 20.9129 3.27998 20.8325 3.20065L8.297 11.9098H8.29464ZM8.2615 12.8713C8.19403 13.0311 8.09579 13.1744 7.97507 13.2952C7.73243 13.5379 7.39747 13.6871 7.02819 13.6871C6.93232 13.6871 6.83881 13.6765 6.74768 13.6575L3.72596 19.7675C3.89166 19.8232 4.04079 19.9179 4.16152 20.0387C4.30474 20.182 4.40889 20.3619 4.4586 20.5656L15.7276 14.9873C15.5773 14.6723 15.4933 14.3194 15.4933 13.9464C15.4933 13.9157 15.4933 13.8861 15.4944 13.8553L8.26031 12.8713H8.2615ZM42.0164 43.992C42.5408 44.056 43.0095 44.2952 43.3646 44.6504C43.7812 45.0672 44.0392 45.6427 44.0392 46.2797C44.0392 46.4313 44.025 46.5805 43.9966 46.7238L52.2368 48.4526C52.2806 48.3211 52.3469 48.2004 52.4321 48.0961L43.2545 36.6873C43.232 36.6884 43.2095 36.6896 43.187 36.6896C43.0438 36.6896 42.9065 36.6624 42.7811 36.6138L42.0164 43.9944V43.992ZM43.8581 47.1761C43.7421 47.4508 43.5729 47.6995 43.3646 47.9079C42.9479 48.3247 42.3727 48.5828 41.7359 48.5828C41.1003 48.5828 40.5239 48.3247 40.1073 47.9079C39.6907 47.4911 39.4327 46.9156 39.4327 46.2785C39.4327 46.2205 39.435 46.1625 39.4386 46.1057L32.9631 44.2869C32.9051 44.384 32.8365 44.4728 32.7572 44.5521C32.6874 44.622 32.6104 44.6835 32.5264 44.7368L35.3942 50.5709C35.4605 50.565 35.528 50.5626 35.5954 50.5626C36.231 50.5626 36.8074 50.8208 37.2241 51.2376C37.4927 51.5064 37.6951 51.8415 37.8052 52.2157L51.7042 48.8232L43.8569 47.1773L43.8581 47.1761ZM39.525 45.6379C39.6339 45.259 39.8386 44.9216 40.1097 44.6504C40.4837 44.2762 40.9855 44.0299 41.5442 43.9837L42.3396 36.3024C42.3017 36.2586 42.2674 36.2124 42.2366 36.1639L33.0152 42.982C33.1063 43.1643 33.1584 43.3716 33.1584 43.5894C33.1584 43.6759 33.1501 43.7611 33.1348 43.844L39.5262 45.6391L39.525 45.6379ZM19.4891 54.9806C19.8004 54.9806 20.0821 55.1073 20.2856 55.3109C20.4892 55.5146 20.6159 55.7964 20.6159 56.1078C20.6159 56.2511 20.5898 56.3873 20.5413 56.5128L24.8638 58.4003C24.9194 58.2783 24.9975 58.1682 25.091 58.0746C25.2946 57.871 25.5763 57.7443 25.8876 57.7443C25.9527 57.7443 26.0166 57.7502 26.0793 57.7609L28.4738 51.4957L17.4 48.79C17.284 49.1157 17.097 49.407 16.8591 49.6461C16.7621 49.7432 16.6579 49.8309 16.5455 49.909L19.3506 54.9912C19.3968 54.9853 19.4441 54.9817 19.4926 54.9817L19.4891 54.9806ZM18.4771 55.6117C18.5316 55.4992 18.6049 55.3986 18.6925 55.3109C18.7541 55.2494 18.8215 55.1961 18.8949 55.1499L16.1277 50.1376C15.8507 50.2548 15.5465 50.3199 15.227 50.3199C14.5914 50.3199 14.015 50.0618 13.5983 49.645C13.2598 49.3063 13.0267 48.8635 12.9509 48.3673L9.05687 48.5651C9.0332 48.7024 8.98586 48.8303 8.91839 48.9463L14.1156 53.7076L18.4759 55.6117H18.4771ZM26.5149 57.9373C26.5741 57.9775 26.6297 58.0237 26.6806 58.0746C26.8617 58.2558 26.9812 58.4997 27.0061 58.7697L37.7531 58.1102C37.7946 57.8793 37.9058 57.6744 38.0656 57.5146C38.113 57.4672 38.1638 57.4246 38.2195 57.3855L36.9223 54.7473C36.5471 55.0125 36.089 55.1677 35.5954 55.1677C34.9599 55.1677 34.3834 54.9095 33.9668 54.4927C33.5502 54.0759 33.2922 53.5004 33.2922 52.8634C33.2922 52.7994 33.2945 52.7367 33.3005 52.6739L28.933 51.607L26.5149 57.9361V57.9373ZM38.8622 57.1854C39.1735 57.1854 39.4552 57.3121 39.6587 57.5157L52.3043 49.3217C52.2806 49.2755 52.2593 49.227 52.2415 49.1772L37.8904 52.681C37.8952 52.7426 37.8975 52.8042 37.8975 52.8657C37.8975 53.4673 37.6667 54.0155 37.2892 54.4264L38.655 57.2055C38.7225 57.1925 38.7912 57.1866 38.8622 57.1866V57.1854ZM33.388 52.2109C33.4981 51.8379 33.7005 51.504 33.968 51.2364C34.2296 50.9747 34.5539 50.7758 34.9149 50.6645L32.0908 44.918C31.9961 44.9393 31.8967 44.95 31.7949 44.95C31.6908 44.95 31.589 44.9381 31.4907 44.9156L29.1034 51.1642L33.388 52.2109ZM15.3489 45.7149C15.9359 45.7457 16.465 45.9967 16.8556 46.3863C17.2722 46.8031 17.5302 47.3786 17.5302 48.0156C17.5302 48.1222 17.5231 48.2276 17.5089 48.3306L28.6406 51.0505L31.0552 44.7309C30.9747 44.6788 30.9001 44.6184 30.8327 44.5509C30.5865 44.3046 30.4338 43.9636 30.4338 43.5882C30.4338 43.4473 30.4551 43.3112 30.4953 43.1833C25.542 40.2384 20.5886 37.2923 15.6365 34.3463L15.6306 34.3522C15.4092 34.5736 15.1228 34.7311 14.8032 34.7951L15.3489 45.7161V45.7149ZM37.3436 2.58254C37.3247 2.60386 37.3057 2.62517 37.2856 2.6453C37.0631 2.86791 36.7554 3.00527 36.4157 3.00527C36.3387 3.00527 36.2642 2.99816 36.192 2.98514L33.4744 9.86008C33.6401 10.0424 33.7455 10.2804 33.7621 10.5421L49.4127 9.67299C49.434 9.64812 49.4565 9.62326 49.4802 9.59957L49.4849 9.59484L37.3424 2.58373L37.3436 2.58254ZM33.6899 11.0181C33.665 11.0833 33.6342 11.1448 33.5987 11.2029L44.1801 20.8273C44.4274 20.6307 44.7411 20.5135 45.082 20.5135C45.1849 20.5135 45.2867 20.5242 45.3838 20.5443L49.4542 11.165C49.266 10.9637 49.1512 10.6925 49.1512 10.3953C49.1512 10.3136 49.1595 10.2343 49.176 10.1585L33.691 11.0181H33.6899ZM33.2732 11.5451C33.1336 11.641 32.9714 11.7061 32.7951 11.7298L30.2468 26.1203C30.6279 26.2292 30.97 26.4341 31.2422 26.7064C31.4008 26.8651 31.5357 27.0462 31.6422 27.2452L43.664 22.2944C43.6392 22.189 43.6273 22.0789 43.6273 21.9664C43.6273 21.6751 43.7125 21.404 43.8605 21.1766L33.2709 11.5451H33.2732ZM32.3216 11.6954C32.1382 11.6422 31.9748 11.5427 31.8423 11.4113C31.8068 11.3757 31.7736 11.339 31.744 11.2988L20.3188 13.6859C20.3283 13.7724 20.333 13.8588 20.333 13.9476C20.333 14.6166 20.0619 15.2217 19.624 15.6598L19.6157 15.6681L28.353 26.4104C28.7152 26.1724 29.1496 26.0338 29.6159 26.0338C29.6716 26.0338 29.7284 26.0362 29.7828 26.0397C30.6303 21.2595 31.4765 16.4781 32.3216 11.6966V11.6954ZM58.2376 35.1266C58.1796 35.0863 58.1252 35.0413 58.0755 34.9916C57.9394 34.8554 57.8388 34.6861 57.7855 34.4955L44.2097 36.0301C44.154 36.152 44.0759 36.2633 43.9824 36.3569C43.9114 36.4279 43.8309 36.4895 43.7433 36.5404L52.799 47.7978C52.9517 47.7208 53.1233 47.677 53.3056 47.677C53.3636 47.677 53.4204 47.6817 53.4748 47.69L58.2376 35.1266ZM57.7583 34.023C57.7808 33.875 57.8328 33.7365 57.9062 33.6145L45.9945 23.0984C45.7448 23.3009 45.4276 23.4217 45.0808 23.4217C45.0689 23.4217 45.0571 23.4217 45.0465 23.4217L43.058 33.92L43.0036 34.4505C43.0628 34.441 43.1231 34.4363 43.1858 34.4363C43.4971 34.4363 43.7788 34.563 43.9824 34.7666C44.1824 34.9667 44.3079 35.2415 44.3126 35.5458L57.7595 34.0254L57.7583 34.023ZM31.7937 29.0817L42.2425 34.9442C42.2851 34.8791 42.3337 34.8199 42.3881 34.7643C42.4248 34.7276 42.4639 34.6932 42.5053 34.6612L42.5881 33.8584L42.5905 33.8395L44.5801 23.3317C44.3801 23.2583 44.2002 23.1422 44.0522 22.9942C43.9729 22.9149 43.9031 22.8261 43.8439 22.7302L31.8221 27.6809C31.8837 27.8881 31.9168 28.1084 31.9168 28.3346C31.9168 28.5951 31.873 28.8461 31.7937 29.0805V29.0817ZM42.0721 35.3907L31.5949 29.5127C31.4967 29.6785 31.3783 29.8301 31.2434 29.9651C30.9498 30.2587 30.5782 30.4731 30.1616 30.5749L31.7677 42.2277C31.776 42.2277 31.7855 42.2277 31.7937 42.2277C32.1571 42.2277 32.4873 42.3698 32.7311 42.6031L42.0673 35.6997C42.0614 35.6547 42.0591 35.6085 42.0591 35.5624C42.0591 35.5043 42.0638 35.4475 42.0721 35.3918V35.3907ZM19.2488 15.9653C18.8653 16.2199 18.4061 16.3679 17.9113 16.3679C17.8474 16.3679 17.7847 16.3656 17.722 16.3608L14.9985 31.6749C15.2388 31.7554 15.453 31.8904 15.6282 32.0657C15.833 32.2705 15.9821 32.5299 16.0543 32.82L27.373 28.8686C27.3328 28.6981 27.3115 28.5193 27.3115 28.3369C27.3115 27.7011 27.5695 27.1256 27.9849 26.7088L19.2476 15.9665L19.2488 15.9653ZM17.258 16.2791C16.852 16.1655 16.4899 15.9488 16.1999 15.6598C16.117 15.577 16.0401 15.4881 15.9703 15.3946L4.45979 21.0925C4.41126 21.3009 4.30474 21.488 4.15915 21.6337C4.11891 21.6739 4.07512 21.7118 4.02896 21.745L13.4669 31.9532C13.7451 31.727 14.099 31.592 14.486 31.592C14.5014 31.592 14.518 31.592 14.5334 31.5932C15.4424 26.4885 16.3514 21.3838 17.258 16.2791ZM16.0993 33.3043C16.0851 33.5411 16.0211 33.7649 15.9158 33.9638L30.7107 42.7629C30.7474 42.7144 30.7877 42.6682 30.8303 42.6256C30.9629 42.4929 31.1238 42.3864 31.3025 42.3177C30.7664 38.4243 30.2302 34.531 29.6929 30.6376C29.6668 30.6388 29.6396 30.6388 29.6136 30.6388C28.978 30.6388 28.4016 30.3807 27.9849 29.9639C27.7967 29.7756 27.6417 29.5566 27.5281 29.3126L16.0993 33.3031V33.3043ZM3.41704 20.8368H3.36259L3.40047 20.8747C3.40165 20.8664 3.41112 20.8439 3.41586 20.8368H3.41704Z" fill="#111312"/>
</svg>
